<?xml version="1.0" encoding="UTF-8" standalone="no"?>
<svg
   xmlns:dc="http://purl.org/dc/elements/1.1/"
   xmlns:cc="http://creativecommons.org/ns#"
   xmlns:rdf="http://www.w3.org/1999/02/22-rdf-syntax-ns#"
   xmlns:svg="http://www.w3.org/2000/svg"
   xmlns="http://www.w3.org/2000/svg"
   xmlns:sodipodi="http://sodipodi.sourceforge.net/DTD/sodipodi-0.dtd"
   xmlns:inkscape="http://www.inkscape.org/namespaces/inkscape"
   sodipodi:docname="hook.svg"
   inkscape:version="1.0 (4035a4f, 2020-05-01)"
   id="svg8"
   version="1.1"
   viewBox="0 0 1.5706601 23.812235"
   height="23.812235mm"
   width="1.5706601mm">
  <defs
     id="defs2" />
  <sodipodi:namedview
     inkscape:window-maximized="0"
     inkscape:window-y="25"
     inkscape:window-x="1440"
     inkscape:window-height="956"
     inkscape:window-width="1920"
     fit-margin-bottom="0"
     fit-margin-right="0"
     fit-margin-left="0"
     fit-margin-top="0"
     showgrid="false"
     inkscape:document-rotation="0"
     inkscape:current-layer="layer1"
     inkscape:document-units="mm"
     inkscape:cy="45.214106"
     inkscape:cx="8.6824614"
     inkscape:zoom="5.6"
     inkscape:pageshadow="2"
     inkscape:pageopacity="0.0"
     borderopacity="1.0"
     bordercolor="#666666"
     pagecolor="#ffffff"
     id="base" />
  <metadata
     id="metadata5">
    <rdf:RDF>
      <cc:Work
         rdf:about="">
        <dc:format>image/svg+xml</dc:format>
        <dc:type
           rdf:resource="http://purl.org/dc/dcmitype/StillImage" />
        <dc:title></dc:title>
      </cc:Work>
    </rdf:RDF>
  </metadata>
  <g
     transform="translate(-103.5361,-100.73079)"
     id="layer1"
     inkscape:groupmode="layer"
     inkscape:label="Layer 1">
    <g
       transform="matrix(0.26458333,0,0,0.26458333,91.092309,99.407871)"
       id="g851"
       style="fill:magenta">
      <path
         d="m 52.968,43.676 c 0,-5.693 -1.093,-10.329 -1.296,-11.14 V 10.347 C 51.704,8.822 51.282,5 50,5 c -1,0 -2.77,5.011 -2.959,6.546 -0.06,0.477 0.178,0.952 0.447,0.993 0.265,0.041 0.544,-0.117 0.888,-0.602 0.301,-0.424 1.349,-2.071 1.34,-1.591 -0.012,0.606 0,22.189 0,22.189 -0.203,0.812 -1.296,5.447 -1.296,11.14 0,5.696 1.094,10.333 1.296,11.14 v 39.206 c 0,0.54 0.438,0.978 0.978,0.978 0.541,0 0.979,-0.438 0.979,-0.978 V 54.812 c 0.203,-0.815 1.295,-5.448 1.295,-11.136 z"
         id="path833" />
    </g>
  </g>
</svg>
