<?xml version="1.0" encoding="UTF-8" standalone="no"?>
<svg
   xmlns:dc="http://purl.org/dc/elements/1.1/"
   xmlns:cc="http://creativecommons.org/ns#"
   xmlns:rdf="http://www.w3.org/1999/02/22-rdf-syntax-ns#"
   xmlns:svg="http://www.w3.org/2000/svg"
   xmlns="http://www.w3.org/2000/svg"
   xmlns:sodipodi="http://sodipodi.sourceforge.net/DTD/sodipodi-0.dtd"
   xmlns:inkscape="http://www.inkscape.org/namespaces/inkscape"
   inkscape:version="1.0 (4035a4f, 2020-05-01)"
   sodipodi:docname="thread.svg"
   id="svg8"
   version="1.1"
   viewBox="0 0 12.823579 12.411502"
   height="12.411502mm"
   width="12.823579mm">
  <defs
     id="defs2" />
  <sodipodi:namedview
     fit-margin-bottom="0"
     fit-margin-right="0"
     fit-margin-left="0"
     fit-margin-top="0"
     inkscape:window-maximized="0"
     inkscape:window-y="25"
     inkscape:window-x="1440"
     inkscape:window-height="956"
     inkscape:window-width="1920"
     showgrid="false"
     inkscape:document-rotation="0"
     inkscape:current-layer="layer1"
     inkscape:document-units="mm"
     inkscape:cy="-75.4828"
     inkscape:cx="32.05349"
     inkscape:zoom="0.49497475"
     inkscape:pageshadow="2"
     inkscape:pageopacity="0.0"
     borderopacity="1.0"
     bordercolor="#666666"
     pagecolor="#ffffff"
     id="base" />
  <metadata
     id="metadata5">
    <rdf:RDF>
      <cc:Work
         rdf:about="">
        <dc:format>image/svg+xml</dc:format>
        <dc:type
           rdf:resource="http://purl.org/dc/dcmitype/StillImage" />
        <dc:title></dc:title>
      </cc:Work>
    </rdf:RDF>
  </metadata>
  <g
     transform="translate(-96.927291,-117.99389)"
     id="layer1"
     inkscape:groupmode="layer"
     inkscape:label="Layer 1">
    <path
       d="m 104.31737,117.99708 c -0.10609,-0.0249 -0.16067,0.10209 -0.10749,0.16691 -0.15214,-0.001 -0.30393,0.004 -0.45527,0.01 -0.2294,0.008 -0.45894,0.0103 -0.68833,0.0134 -0.0164,-0.0241 -0.042,-0.0418 -0.0791,-0.0439 -0.0545,-0.003 -0.0983,0.0171 -0.13642,0.0486 -0.13917,0.002 -0.27763,0.0115 -0.41548,0.0274 -0.0145,-10e-4 -0.0291,0.002 -0.0439,0.008 -0.10689,0.0138 -0.21355,0.0286 -0.31885,0.0537 -0.0355,0.008 -0.0705,0.0202 -0.10542,0.0305 -0.0622,0.0109 -0.11811,0.0302 -0.17208,0.0537 -0.0431,-0.0463 -0.12543,-0.058 -0.16485,0.0134 -0.0135,0.0243 -0.0299,0.047 -0.0455,0.0698 -0.0519,0.0175 -0.10369,0.0355 -0.15555,0.0532 -0.0243,-0.0111 -0.0477,-0.0233 -0.0734,-0.032 -0.0709,-0.0243 -0.12791,0.0391 -0.12712,0.10387 -0.0238,0.009 -0.0478,0.0179 -0.0713,0.0269 -0.0762,0.009 -0.15223,0.0182 -0.22737,0.0336 -0.12965,0.0262 -0.24458,0.0957 -0.35967,0.15762 -0.10821,0.0582 -0.21754,0.11376 -0.32866,0.16588 -0.0196,-0.01 -0.0428,-0.0135 -0.0703,-0.004 -0.0646,0.0214 -0.10849,0.0644 -0.14315,0.11627 -0.0164,0.01 -0.03399,0.016 -0.05012,0.0264 -0.04313,0.0278 -0.100851,0.0779 -0.152448,0.0879 -0.0087,0.002 -0.01482,0.006 -0.02169,0.009 -0.03519,-0.0188 -0.07949,-0.0192 -0.116272,0.0176 l -0.02273,0.0233 c -0.02646,0.0265 -0.03064,0.0628 -0.02326,0.0956 -0.391319,0.2413 -0.752748,0.52755 -1.080037,0.85059 -0.0042,0.001 -0.0071,0.003 -0.01138,0.005 -0.14949,0.0492 -0.302893,0.0866 -0.454237,0.12919 -0.128577,0.0363 -0.07357,0.23623 0.0553,0.19999 0.04153,-0.0116 0.0835,-0.023 0.125574,-0.0341 -0.08916,0.10107 -0.177382,0.20292 -0.259932,0.30954 -0.08731,0.0257 -0.176755,0.048 -0.264067,0.0506 -0.13335,0.004 -0.133879,0.2112 0,0.20723 0.02752,-8e-4 0.05542,-0.006 0.0832,-0.009 -0.03731,0.0521 -0.07693,0.10263 -0.11317,0.15555 -0.09843,0.1442 -0.174035,0.30183 -0.234096,0.4656 -0.06959,-5.3e-4 -0.142359,0.073 -0.0987,0.15451 0.0095,0.0177 0.02347,0.0297 0.03669,0.0424 -0.03043,0.10874 -0.05615,0.21858 -0.07493,0.32918 -0.02037,-0.01 -0.04138,-0.0194 -0.06149,-0.0295 -0.119327,-0.0593 -0.224758,0.12005 -0.104902,0.17932 0.04524,0.0225 0.09117,0.0429 0.136943,0.0646 -0.02302,0.21273 -0.0299,0.42649 -0.03307,0.64028 -0.03307,-0.0175 -0.0682,-0.0335 -0.101804,-0.0537 -0.114829,-0.0693 -0.219202,0.11027 -0.104902,0.17932 0.06615,0.0399 0.134303,0.0742 0.203087,0.10697 -5.3e-4,0.0333 -5.3e-4,0.0667 -0.0016,0.10025 -0.0021,0.0796 -0.0048,0.15935 -0.0072,0.23927 -0.04524,-0.0138 -0.08915,-0.0306 -0.132807,-0.0486 -0.01614,-0.0222 -0.04178,-0.0382 -0.07803,-0.0382 h -0.03462 c -0.0979,0 -0.149019,0.14751 -0.05271,0.19327 0.09446,0.045 0.193257,0.0769 0.293005,0.10438 -0.0032,0.12832 -0.0047,0.25667 -0.0036,0.38499 -0.02381,-0.007 -0.04726,-0.0148 -0.0708,-0.0222 -0.127794,-0.0405 -0.182554,0.15977 -0.05529,0.19999 0.04392,0.0138 0.08786,0.0271 0.131773,0.0408 0.0037,0.0852 0.0076,0.1706 0.0155,0.2558 0.01614,0.17224 0.06601,0.35004 0.104902,0.51831 0.04524,0.19501 0.103619,0.38143 0.203089,0.55553 0.05186,0.0907 0.107963,0.17833 0.164849,0.26458 -0.0085,0.0421 -0.01521,0.0852 -0.01654,0.13178 -0.0026,0.0939 0.09725,0.12024 0.159163,0.0827 2.65e-4,5.3e-4 0.0011,7.9e-4 0.0016,10e-4 -0.02752,0.0696 -0.04627,0.14065 -0.05633,0.21394 -0.0071,0.0135 -0.01188,0.0293 -0.01188,0.0481 v 0.0227 c 0,0.13414 0.201665,0.13309 0.207221,0 7.94e-4,-0.0167 0.0064,-0.0322 0.0088,-0.0486 0.03254,0.0545 0.0616,0.11131 0.09043,0.16846 -0.03916,0.0463 -0.118949,0.15768 -0.159163,0.2651 -0.110596,-0.0722 -0.219964,-0.17051 -0.216524,-0.29248 0.0037,-0.13389 -0.203518,-0.13335 -0.207225,0 -0.0074,0.26934 0.266656,0.4495 0.475941,0.56275 0.09155,0.0495 0.188113,0.0808 0.286806,0.10439 -0.01852,0.0468 -0.03109,0.095 -0.03876,0.14417 -0.01323,-0.004 -0.02683,-0.0103 -0.03979,-0.0124 -0.130704,-0.0228 -0.186536,0.17696 -0.05478,0.19998 0.07197,0.0124 0.161809,0.0836 0.225309,0.11938 0.0783,0.0442 0.145307,0.0909 0.229444,0.12402 0.03625,0.0143 0.07353,0.0251 0.111104,0.0357 0.0053,0.007 0.01125,0.0135 0.01654,0.0202 -0.0077,0.0349 -0.01238,0.071 -0.01344,0.108 -0.0026,0.0982 0.108128,0.12356 0.168982,0.0775 0.01111,0.0122 0.02196,0.024 0.03307,0.0362 -0.0032,-2.7e-4 -0.0066,-1.6e-4 -0.0098,-5.3e-4 -0.07594,-0.005 -0.151969,-0.0111 -0.227375,-0.0217 -0.02937,-0.004 -0.05849,-0.01 -0.08733,-0.0165 -0.0095,-0.002 -0.01257,-0.004 -0.01707,-0.005 -0.06112,-0.073 -0.209204,-0.0171 -0.179319,0.0956 0.04366,0.16457 0.385932,0.14603 0.51108,0.15503 0.07541,0.005 0.150936,0.0122 0.226343,0.0186 0.04789,0.0476 0.09576,0.095 0.144176,0.14159 -0.07223,-0.0201 -0.143764,-0.042 -0.216524,-0.0579 -0.01535,-0.0111 -0.0338,-0.0196 -0.05788,-0.0196 h -0.06924 c -0.135202,0 -0.131765,0.19718 0,0.20722 0.102656,0.008 0.201007,0.0542 0.300755,0.078 0.09207,0.0222 0.185909,0.0382 0.279572,0.0506 0.0164,0.002 0.03269,0.002 0.04909,0.004 0.01931,0.0175 0.03856,0.0345 0.05788,0.0517 0.01429,0.0317 0.02834,0.0636 0.04289,0.0956 0.03995,0.0878 0.07667,0.17647 0.112654,0.26562 -0.09287,-0.0304 -0.182121,-0.0676 -0.260966,-0.11679 -0.113771,-0.0709 -0.217628,0.10867 -0.104386,0.17932 0.142345,0.0886 0.308358,0.14278 0.480075,0.18035 0.02143,0.0413 0.04091,0.0827 0.04806,0.12609 0.0217,0.13176 0.221679,0.0759 0.199989,-0.0548 -0.002,-0.0111 -0.007,-0.0209 -0.0104,-0.0315 0.13415,0.0167 0.26835,0.0281 0.39429,0.032 0.0622,0.0386 0.12357,0.078 0.18707,0.11421 0.002,0.003 0.002,0.006 0.005,0.009 0.001,0.001 0.002,0.002 0.004,0.003 0.0331,0.0484 0.0699,0.0935 0.12093,0.12815 0.0447,0.0307 0.0874,0.0188 0.11627,-0.0103 0.055,0.028 0.10772,0.0601 0.16381,0.0863 0.17595,0.0826 0.35718,0.15305 0.54106,0.21549 0.0283,0.0476 0.0595,0.0932 0.10232,0.13074 0.0662,0.0579 0.15193,0.0131 0.17415,-0.0491 0.0646,0.0182 0.12766,0.0412 0.19275,0.0574 0.0937,0.023 0.18744,0.0407 0.28164,0.0558 0.054,0.0458 0.10732,0.0926 0.15812,0.14314 0.0812,0.081 0.19959,-0.0152 0.1726,-0.10387 0.2077,0.0164 0.41677,0.0193 0.62684,0.017 0.41275,-0.005 0.83455,0.009 1.24333,-0.0517 0.30692,-0.0455 0.6022,-0.14801 0.8816,-0.28163 0.0714,0.0815 0.20923,0.007 0.1788,-0.0894 0.12488,-0.0675 0.24552,-0.14336 0.36484,-0.22273 0.0341,-0.003 0.0634,-0.0239 0.0801,-0.0532 0.16087,-0.11008 0.31806,-0.22574 0.47284,-0.34004 0.20849,-0.15372 0.40883,-0.31822 0.60409,-0.48834 0.0751,0.0241 0.15283,-0.0493 0.13643,-0.11937 0.0241,-0.022 0.0496,-0.0421 0.0734,-0.0646 0.31512,-0.29342 0.59662,-0.62212 0.83819,-0.97772 0.0455,0.09 0.20565,0.0774 0.19534,-0.0403 -0.006,-0.0646 -0.026,-0.12096 -0.0517,-0.17467 0.0794,-0.13097 0.14935,-0.26753 0.21549,-0.40617 0.004,0.009 0.009,0.0181 0.0129,0.0269 -0.0283,0.0614 2.2e-4,0.15089 0.0884,0.15089 h 0.046 c 0.0624,0 0.1246,-0.0672 0.10026,-0.13126 -0.037,-0.0976 -0.0912,-0.18551 -0.1447,-0.27388 0.0384,-0.096 0.0737,-0.19354 0.10542,-0.29197 0.0172,5.3e-4 0.0345,5.3e-4 0.0517,0.002 10e-4,0.003 0.002,0.007 0.004,0.0108 -0.0857,0.0349 -0.0699,0.19257 0.0455,0.20051 0.10689,0.007 0.18813,-0.0612 0.1757,-0.1726 -0.003,-0.0294 -0.0119,-0.057 -0.0217,-0.0842 0.003,-0.006 0.007,-0.0112 0.009,-0.0176 0.009,0.0132 0.0156,0.0279 0.0243,0.0413 1.6e-4,-0.005 5.3e-4,-0.01 5.3e-4,-0.015 -0.031,-0.0455 -0.0912,-0.13637 -0.0723,-0.16588 0.007,-0.0107 0.0182,-0.0175 0.0274,-0.0263 -0.004,-0.0238 0.004,-0.0505 0.0176,-0.0775 0.001,0.002 0.002,0.004 0.003,0.005 -7.9e-4,-0.005 -10e-4,-0.009 5.3e-4,-0.0119 -2.6e-4,-2.7e-4 -7.9e-4,-5.3e-4 -0.001,-10e-4 -5.3e-4,10e-4 -0.002,0.003 -0.003,0.004 -7.9e-4,-0.003 -0.002,-0.006 -0.003,-0.009 -0.004,-0.007 -0.007,-0.0135 -0.01,-0.0207 -0.0278,-0.0265 -0.0612,-0.0628 -0.0372,-0.0594 0.007,0.001 0.0126,0.005 0.0191,0.006 -2.6e-4,-0.002 2.3e-4,-7.9e-4 0,-0.002 -0.005,-0.0114 -0.009,-0.0226 -0.0134,-0.0341 -0.0327,0.0152 -0.0472,0.0107 -0.0263,-0.032 -0.0151,-0.0149 -0.0292,-0.0307 -0.0444,-0.0455 0.018,-0.0693 0.036,-0.13893 0.0537,-0.20825 0.009,-0.0368 0.0158,-0.0743 0.0248,-0.11111 0.0159,0.027 0.0422,0.0476 0.0832,0.0476 h 0.0692 c 0.0558,0 0.10493,-0.0473 0.10387,-0.10387 -0.004,-0.22463 -0.055,-0.44243 -0.11162,-0.65939 0.0214,-0.13044 0.0451,-0.26046 0.0599,-0.39223 0.007,-0.0577 0.01,-0.11568 0.0145,-0.17363 0.005,0.007 0.012,0.0138 0.0165,0.0217 0.0667,0.11588 0.24574,0.0112 0.1788,-0.1049 -0.0455,-0.0791 -0.10864,-0.1424 -0.18087,-0.19585 0.002,-0.0606 0.003,-0.12158 0.003,-0.1819 0.0286,-0.0341 0.0345,-0.0813 -0.004,-0.11938 -0.002,-0.0714 -0.006,-0.14277 -0.0109,-0.21394 0.0111,-0.0111 0.0217,-0.0225 0.0326,-0.0336 0.12912,-0.13177 0.24339,-0.28953 0.23255,-0.48214 -0.007,-0.13309 -0.21515,-0.13362 -0.20774,0 0.005,0.0918 -0.0323,0.17019 -0.0858,0.2403 -0.0312,-0.23759 -0.0806,-0.4726 -0.14572,-0.70384 2.5e-4,-0.007 0.001,-0.0135 0.002,-0.0202 8e-4,-0.031 -0.0102,-0.0541 -0.0269,-0.0708 -0.0333,-0.11007 -0.0698,-0.21917 -0.1111,-0.32711 0.013,-0.0355 0.0294,-0.0689 0.0419,-0.10491 0.0323,-0.0942 -0.0694,-0.14772 -0.14159,-0.11782 -0.0987,-0.22172 -0.21192,-0.43574 -0.3421,-0.64027 0.0452,-0.10266 0.0978,-0.20048 0.18087,-0.27905 0.0974,-0.0918 -0.0497,-0.23858 -0.14676,-0.14677 -0.0685,0.0648 -0.1219,0.142 -0.16847,0.22428 -0.0685,-0.0974 -0.13933,-0.19342 -0.21394,-0.28629 0.0799,-0.0953 -0.0452,-0.22802 -0.1328,-0.15658 -0.0352,-0.0408 -0.0723,-0.0802 -0.10852,-0.11989 0.0185,-0.0347 0.0345,-0.072 0.0403,-0.11833 0.0146,-0.11405 -0.13647,-0.12801 -0.18965,-0.0465 -0.007,-0.007 -0.0127,-0.0148 -0.0196,-0.0217 -0.0339,-0.0341 -0.0708,-0.0651 -0.10542,-0.0982 0.008,-0.0114 0.0179,-0.0222 0.0243,-0.0346 0.0558,-0.11243 -0.0987,-0.20982 -0.1664,-0.12092 -0.0172,-0.0497 -0.0352,-0.0996 -0.0506,-0.14986 -0.0143,-0.0468 -0.0463,-0.0948 -0.0889,-0.11628 -0.0455,-0.0585 -0.14216,-0.0594 -0.17363,-0.002 -0.0587,-0.0534 -0.11829,-0.10621 -0.1757,-0.16123 0.006,-0.004 0.013,-0.008 0.0191,-0.0119 0.11139,-0.073 0.007,-0.25288 -0.1049,-0.17932 -0.0228,0.0148 -0.0463,0.0283 -0.0692,0.0429 -0.0669,-0.0646 -0.13381,-0.12951 -0.20154,-0.19327 0.0246,-0.0442 0.004,-0.11063 -0.0439,-0.14211 -0.0188,-0.054 -0.0412,-0.10641 -0.078,-0.15193 -0.0553,-0.0683 -0.13608,-0.0271 -0.16227,0.0377 -0.0124,-0.0109 -0.0243,-0.0222 -0.0367,-0.0331 0.0476,-0.0836 -0.0636,-0.18635 -0.15193,-0.12868 -0.10689,-0.0865 -0.2172,-0.16849 -0.33176,-0.24443 -0.006,-0.0251 -0.0119,-0.0508 -0.0134,-0.077 -0.008,-0.11192 -0.15511,-0.12891 -0.19585,-0.0517 -0.055,-0.0312 -0.11004,-0.0619 -0.16692,-0.0899 -0.2921,-0.1434 -0.59736,-0.21355 -0.91777,-0.25218 -0.0786,-0.0905 -0.16867,-0.16344 -0.28164,-0.19017 z m -0.18966,0.34365 c 0.11216,0.001 0.22427,0.005 0.33539,0.0129 0.0307,0.0397 0.0589,0.0806 0.0837,0.11627 0.0836,0.11932 0.15747,0.24465 0.25167,0.35657 0.16588,0.19712 0.22442,0.44322 0.26199,0.69298 -0.23097,-0.13149 -0.46592,-0.25683 -0.7059,-0.3669 -0.38285,-0.17543 -0.78116,-0.29781 -1.18545,-0.41238 -0.007,-0.002 -0.0133,-0.003 -0.0196,-0.005 -0.0209,-0.0259 -0.0408,-0.0531 -0.062,-0.0791 -0.0508,-0.0622 -0.11022,-0.13363 -0.15864,-0.20825 0.0132,-0.0365 0.0286,-0.072 0.0439,-0.0879 0.0466,-5.3e-4 0.0932,-0.002 0.13953,-0.002 0.33872,-5.3e-4 0.67897,-0.021 1.01544,-0.0176 z m -1.46761,0.0305 c 0.0106,0.0307 0.0242,0.0608 0.0393,0.0904 -0.0188,0.0561 -0.0348,0.11153 -0.0496,0.15916 -0.0696,-0.0127 -0.1397,-0.0241 -0.20981,-0.0336 -0.0167,-0.0148 -0.0332,-0.0296 -0.0496,-0.045 0.0328,-0.0574 0.0696,-0.11355 0.11886,-0.15297 0.004,-0.003 0.004,-0.006 0.007,-0.009 0.0476,-0.004 0.0958,-0.006 0.14366,-0.009 z m 2.08515,0.015 c 0.0132,0.002 0.0268,0.004 0.0403,0.006 0.009,0.0143 0.0205,0.0274 0.0403,0.0367 0.073,0.0336 0.0914,0.11124 0.11473,0.18242 0.0259,0.0796 0.082,0.14607 0.12195,0.21962 0.10371,0.19075 0.1641,0.40256 0.25115,0.601 0.01,0.0217 0.0212,0.0426 0.031,0.0641 -0.0249,0.013 -0.0493,0.0259 -0.0739,0.0388 -0.0214,-0.16351 -0.0534,-0.32503 -0.11059,-0.48008 -0.0606,-0.16431 -0.1578,-0.29233 -0.25993,-0.43149 -0.0508,-0.0691 -0.10105,-0.15333 -0.15503,-0.2372 z m -2.67271,0.077 c 0.007,0.031 0.0204,0.0618 0.0419,0.0925 -0.10106,-0.006 -0.20227,-0.0107 -0.30334,-0.009 0.0209,-0.008 0.0416,-0.019 0.0625,-0.0269 0.055,-0.0209 0.1116,-0.0332 0.16743,-0.0491 0.0119,-0.001 0.0225,-0.003 0.0315,-0.007 z m 3.03651,0.004 c 0.12091,0.036 0.24089,0.078 0.35863,0.13591 0.0804,0.0397 0.1579,0.0834 0.2341,0.12971 0.0304,0.109 0.0757,0.21469 0.0987,0.32608 0.008,0.0408 0.023,0.0804 0.0336,0.12092 -0.0212,0.0175 -0.0434,0.034 -0.0646,0.0512 -0.0757,0.0617 -0.15719,0.11434 -0.24133,0.16382 -0.0614,-0.13706 -0.11598,-0.2763 -0.1726,-0.416 -0.0286,-0.0701 -0.0589,-0.13921 -0.0915,-0.20774 -0.0397,-0.0839 -0.10554,-0.15995 -0.13436,-0.24753 -0.006,-0.019 -0.0133,-0.0375 -0.0207,-0.0563 z m -3.33882,0.28733 c 0.0881,-0.001 0.17648,0.002 0.26459,0.006 -0.0217,0.0397 -0.0429,0.0794 -0.0646,0.11937 -0.0278,-2.6e-4 -0.0559,-7.9e-4 -0.0837,-0.001 h -0.006 c -0.0251,-0.0288 -0.049,-0.0593 -0.0744,-0.0879 -0.0114,-0.0127 -0.024,-0.0245 -0.0356,-0.0367 z m 0.49248,0.0238 0.0873,0.009 c 0.0402,0.036 0.0787,0.0738 0.11627,0.11214 -0.0868,-0.007 -0.17393,-0.0123 -0.26097,-0.015 0.0187,-0.0356 0.0383,-0.0709 0.0574,-0.10645 z m -0.94878,0.009 5.3e-4,5.3e-4 c -0.002,0.002 -0.004,0.005 -0.006,0.007 -0.0344,0.0489 -0.0654,0.0996 -0.0977,0.14934 -0.0746,0.013 -0.14965,0.0258 -0.22479,0.0398 -0.003,-0.005 -0.007,-0.009 -0.0109,-0.0145 0.0344,-0.0106 0.0534,-0.0395 0.0589,-0.0729 0.0683,-0.0341 0.13534,-0.0687 0.20412,-0.10128 0.0257,-0.003 0.0508,-0.006 0.076,-0.008 z m 0.2341,0.0382 c 0.0225,0.0204 0.0437,0.0421 0.0646,0.0641 -0.0423,0.003 -0.084,0.01 -0.12609,0.015 0.0201,-0.0264 0.0401,-0.0529 0.0615,-0.0785 z m 1.23145,0.0362 c 0.0831,0.0185 0.16575,0.0398 0.24804,0.0615 0.0238,0.0302 0.0462,0.0603 0.0693,0.0904 -0.0606,-0.0177 -0.1213,-0.0346 -0.18242,-0.0491 -0.0442,-0.0103 -0.0889,-0.0171 -0.13332,-0.0248 -0.007,-0.009 -0.0143,-0.0186 -0.0217,-0.0279 0.003,-0.008 0.007,-0.0156 0.0103,-0.0238 0.004,-0.009 0.006,-0.0175 0.01,-0.0264 z m 3.20445,0.0646 c 0.0333,0.0249 0.0672,0.0487 0.0997,0.0744 -0.023,0.0138 -0.0463,0.0286 -0.0692,0.0429 -0.008,-0.0397 -0.0199,-0.0784 -0.0305,-0.1173 z m -2.62206,0.0884 c 0.0172,0.005 0.0347,0.009 0.0522,0.0145 0.41725,0.12118 0.817,0.28239 1.20303,0.48162 0.11667,0.0603 0.22784,0.1274 0.34055,0.19276 -0.0802,0.0444 -0.15965,0.0906 -0.23823,0.13797 -0.26485,-0.20161 -0.54698,-0.3823 -0.85628,-0.5302 -0.13653,-0.0653 -0.2775,-0.12558 -0.42064,-0.18035 -0.027,-0.0386 -0.0531,-0.0779 -0.0806,-0.11627 z m -1.57561,0.0718 v 5.3e-4 c 0.0151,0.0169 0.0291,0.0345 0.0439,0.0517 -0.0206,0.0384 -0.0419,0.0771 -0.0625,0.11575 -0.013,0.0243 -0.0253,0.0488 -0.0382,0.0734 -0.0624,-0.0122 -0.12435,-0.0277 -0.1881,-0.0351 -0.0963,-0.0114 -0.19306,-0.017 -0.2899,-0.0212 0.0286,-0.05 0.059,-0.0988 0.0894,-0.14779 0.0778,-0.014 0.15626,-0.0265 0.23564,-0.032 0.0696,-0.005 0.1397,-0.004 0.20981,-0.005 z m 0.30954,10e-4 c 0.0466,0.001 0.0935,0.002 0.13952,0.003 0.073,0.001 0.14559,0.009 0.21808,0.0155 -0.0455,0.10319 -0.0909,0.20662 -0.13694,0.30954 -0.0307,-0.0408 -0.0582,-0.0838 -0.0899,-0.12402 -0.0468,-0.0593 -0.0978,-0.11592 -0.14625,-0.17466 0.005,-0.01 0.0103,-0.019 0.0155,-0.0289 z m 0.5674,0.0455 c 0.003,5.3e-4 0.006,5.3e-4 0.01,0.002 0.0971,0.12355 0.18662,0.2537 0.27234,0.38705 0.0434,0.0675 0.0833,0.13686 0.12298,0.20619 -0.0701,-0.0241 -0.14017,-0.0489 -0.21135,-0.0687 -0.12647,-0.0354 -0.25134,-0.076 -0.37569,-0.1173 0.0611,-0.13574 0.12157,-0.27199 0.1819,-0.40825 z m 3.58531,0.005 c 0.0392,0.0336 0.0774,0.0679 0.11576,0.10231 -0.0762,0.0326 -0.14878,0.0747 -0.21652,0.11886 -0.01,0.007 -0.0207,0.012 -0.031,0.0186 -0.0164,-0.0389 -0.0304,-0.0797 -0.0444,-0.11989 0.0193,-0.0148 0.0373,-0.0304 0.0568,-0.0439 0.0394,-0.0275 0.0797,-0.0514 0.11937,-0.076 z m -3.27215,0.061 c 0.1143,0.0294 0.22709,0.0639 0.33848,0.10387 0.004,0.006 0.009,0.0115 0.0134,0.0176 0.15055,0.21828 0.28074,0.44752 0.40721,0.67903 -0.12012,-0.0553 -0.2413,-0.10787 -0.3638,-0.15813 -0.11642,-0.22278 -0.24927,-0.43728 -0.39532,-0.64234 z m -2.07325,0.0109 c 0.0182,0.0213 0.0356,0.0418 0.0537,0.062 -0.0447,10e-4 -0.0896,-7.9e-4 -0.13436,0.003 -0.0444,0.003 -0.0896,0.004 -0.13539,0.006 0.009,-0.0143 0.0186,-0.0288 0.0279,-0.0434 0.063,-0.009 0.12566,-0.0168 0.18811,-0.0274 z m -0.46096,0.0708 c -0.003,0.005 -0.007,0.0107 -0.0103,0.016 -0.0251,0.003 -0.0503,0.004 -0.0749,0.009 -0.002,-0.003 -0.004,-0.007 -0.006,-0.01 0.0302,-0.006 0.0605,-0.0102 0.0909,-0.015 z m 1.53221,0.0331 c 0.0254,0.031 0.0513,0.0608 0.0765,0.092 -0.0362,-0.0106 -0.0728,-0.0212 -0.10955,-0.031 0.0111,-0.0204 0.022,-0.0409 0.0331,-0.061 z m 3.92276,0.0806 c 0.0111,0.031 0.0262,0.06 0.0387,0.0904 -0.0947,0.0534 -0.18924,0.10624 -0.2837,0.15968 -0.0116,-0.0209 -0.0232,-0.0416 -0.0346,-0.0625 0.0897,-0.0524 0.17711,-0.10778 0.25993,-0.17208 0.007,-0.005 0.013,-0.0102 0.0196,-0.0155 z m 0.60151,0.0165 c 0.0222,0.0902 0.0679,0.17911 0.10232,0.2651 0.002,0.005 0.004,0.0107 0.006,0.016 -0.05,0.0294 -0.1001,0.0585 -0.15038,0.0879 -0.0399,0.0236 -0.0769,0.0508 -0.11523,0.076 -0.0439,-0.099 -0.0917,-0.19412 -0.13798,-0.2899 0.0933,-0.0605 0.19257,-0.12349 0.29507,-0.15503 z m -6.6983,0.0222 c -0.09313,0.0656 -0.184431,0.13298 -0.274918,0.20257 -0.05636,0.0275 -0.111631,0.0574 -0.166915,0.0873 0.143126,-0.10319 0.290227,-0.19968 0.441833,-0.2899 z m 3.84679,0.005 c 0.3138,0.14235 0.61288,0.31767 0.88884,0.5116 -0.13493,0.0775 -0.27109,0.15275 -0.40153,0.23874 -0.0257,-0.0122 -0.0511,-0.0245 -0.0765,-0.0367 -0.0839,-0.15425 -0.16718,-0.30905 -0.25476,-0.46198 -0.0492,-0.086 -0.10289,-0.16859 -0.15607,-0.25167 z m -2.50734,0.0382 c 0.0947,0.10319 0.18785,0.20721 0.27596,0.31781 -0.1487,-0.0138 -0.29804,-0.0207 -0.447,-0.0196 0.054,-0.0881 0.10663,-0.17616 0.15399,-0.26665 0.006,-0.0106 0.0115,-0.0209 0.017,-0.0315 z m -0.24133,0.003 c -0.0582,0.10265 -0.11793,0.20434 -0.17931,0.3054 -0.002,2.7e-4 -0.005,5.3e-4 -0.007,5.3e-4 -0.0651,-0.0794 -0.12772,-0.1614 -0.19069,-0.24236 0.009,-0.0151 0.0186,-0.0307 0.0284,-0.046 0.11616,-0.007 0.23214,-0.0131 0.34882,-0.0176 z m 0.53124,0.009 c 0.0683,0.006 0.13511,0.0171 0.20205,0.0274 -0.0225,0.0437 -0.0455,0.0873 -0.0682,0.13126 -0.0426,-0.0545 -0.0886,-0.10626 -0.13384,-0.15865 z m -1.1653,0.06 c 0.002,0.002 0.004,0.005 0.006,0.008 -0.0627,0.10398 -0.11907,0.21217 -0.1757,0.32039 -0.077,0.0188 -0.151197,0.0441 -0.226339,0.0682 0.02276,-0.0487 0.04599,-0.0968 0.06821,-0.14573 0.02381,-0.0521 0.04852,-0.10446 0.07287,-0.15658 0.0841,-0.0347 0.16876,-0.0677 0.25528,-0.094 z m 1.57871,0.01 c 0.12276,0.0312 0.2437,0.0695 0.36328,0.11266 -0.0272,0.0638 -0.0552,0.12767 -0.0811,0.19224 -0.006,0.0159 -0.0143,0.0309 -0.0207,0.0465 -0.1323,-0.032 -0.2658,-0.0592 -0.40153,-0.0801 -7.9e-4,-0.001 -0.002,-0.002 -0.003,-0.004 0.047,-0.0896 0.0964,-0.17762 0.14314,-0.26717 z m 4.17442,0.11886 h 5.3e-4 c 0.0505,0.0987 0.094,0.20072 0.14005,0.30179 -0.063,0.0453 -0.12515,0.0919 -0.18759,0.13849 -0.0389,-0.0294 -0.0789,-0.0575 -0.11834,-0.0863 -5.3e-4,-0.001 -7.9e-4,-0.003 -0.002,-0.004 -0.0288,-0.0675 -0.0648,-0.13232 -0.10025,-0.19741 0.0892,-0.0513 0.17799,-0.10217 0.26769,-0.15245 z m -0.58291,0.007 c 0.0116,0.0225 0.0227,0.0455 0.0346,0.0677 -0.004,0.002 -0.008,0.004 -0.0114,0.006 -0.008,-0.005 -0.0158,-0.0113 -0.0243,-0.0165 -0.0161,-0.0103 -0.0337,-0.019 -0.0501,-0.0295 l 0.002,-0.001 c 0.0169,-0.009 0.0327,-0.0182 0.0491,-0.0269 z m -5.02915,0.0481 c 0.0195,0.0248 0.0384,0.0501 0.0579,0.0749 -0.0357,0.005 -0.07,0.0133 -0.10542,0.0191 0.0138,-0.0288 0.0265,-0.0577 0.0419,-0.0853 0.002,-0.003 0.004,-0.006 0.006,-0.009 z m 6.50193,0.0243 c 0.0315,0.0307 0.0628,0.0613 0.0946,0.092 0.11668,0.11192 0.23722,0.21915 0.35708,0.32763 0.008,0.0212 0.0153,0.0424 0.0233,0.0636 -0.0402,0.0238 -0.0804,0.0456 -0.11059,0.0646 -0.0603,0.0381 -0.12029,0.0777 -0.18035,0.11575 -0.0399,-0.12409 -0.0783,-0.24802 -0.12299,-0.37052 -0.0328,-0.0897 -0.0695,-0.17827 -0.1049,-0.26717 0.0146,-0.008 0.0294,-0.0171 0.0439,-0.0258 z m -7.187676,0.0129 c -0.04392,0.0934 -0.08833,0.18644 -0.133842,0.27905 -0.167482,0.0704 -0.332894,0.14847 -0.494025,0.22996 -0.05715,0.0288 -0.109815,0.0647 -0.164849,0.0971 0.0082,-0.004 0.01611,-0.008 0.02376,-0.0155 0.164571,-0.16378 0.338182,-0.31569 0.51625,-0.46147 0.08281,-0.0458 0.166708,-0.0892 0.252695,-0.12919 z m 2.870626,0.0284 c 0.11853,0.0349 0.23753,0.0684 0.35553,0.10594 0.0926,0.0296 0.18315,0.0656 0.27337,0.10232 0.0762,0.14658 0.15066,0.29396 0.22686,0.4408 -0.20664,-0.11482 -0.41704,-0.22112 -0.63665,-0.31161 -0.072,-0.1135 -0.14424,-0.22633 -0.21911,-0.33745 z m -0.23099,0.0217 c 0.0458,0.0667 0.0912,0.13329 0.13539,0.20102 -0.0646,-0.0212 -0.12868,-0.0427 -0.19482,-0.0615 0.0196,-0.0466 0.0396,-0.093 0.0594,-0.13952 z m 2.74763,0.0398 c 0.002,0.0159 0.004,0.0324 0.007,0.0486 l 0.008,0.0475 c -0.0511,0.0302 -0.10216,0.06 -0.15296,0.0904 -0.0246,-0.0214 -0.047,-0.0458 -0.0718,-0.0667 0.0696,-0.0407 0.1389,-0.0815 0.20981,-0.11989 z m 1.57407,0.0289 c 0.0534,0.13601 0.10817,0.27118 0.15606,0.40928 0.0273,0.0786 0.0488,0.15937 0.0739,0.23875 -0.0333,0.022 -0.0672,0.0424 -0.10026,0.0646 -0.0421,0.0286 -0.0822,0.0605 -0.12402,0.0899 -0.009,-0.008 -0.0184,-0.0156 -0.0274,-0.0233 -0.0675,-0.21139 -0.14962,-0.41952 -0.23667,-0.62218 0.0849,-0.0545 0.17081,-0.10656 0.25838,-0.1571 z m -5.80223,0.0977 c 0.16562,-0.003 0.33178,0.004 0.49661,0.0191 -0.0616,0.11722 -0.12305,0.23448 -0.18707,0.35037 -0.10371,-0.12277 -0.20635,-0.24646 -0.30954,-0.36948 z m -0.28939,0.0165 c -0.0828,0.13996 -0.16302,0.28126 -0.22996,0.42943 -0.1569,0.34713 -0.22243,0.72821 -0.3452,1.08831 -0.128049,-0.0103 -0.257147,-0.0176 -0.387057,-0.0181 0.03387,-0.11086 0.07186,-0.22093 0.114723,-0.33073 0.147373,-0.37597 0.293674,-0.76202 0.496614,-1.11259 0.032,-0.007 0.0628,-0.0169 0.0951,-0.0227 0.0844,-0.0159 0.17034,-0.0249 0.2558,-0.0336 z m 4.85242,0.005 c 0.0799,0.0534 0.16171,0.10488 0.24029,0.16071 0.0164,0.0408 0.0315,0.0822 0.045,0.12403 -0.10002,0.0717 -0.1997,0.14354 -0.30024,0.21446 -0.005,-0.005 -0.009,-0.0107 -0.0134,-0.016 -0.0233,-0.14208 -0.046,-0.2845 -0.0682,-0.42685 0.0323,-0.0188 0.0644,-0.0375 0.0966,-0.0563 z m -3.85042,0.0227 c 0.0921,0.12567 0.18424,0.25099 0.27234,0.37931 -0.0831,0.15743 -0.16638,0.31456 -0.24391,0.4749 -0.0952,-0.12197 -0.19146,-0.24293 -0.29042,-0.36173 0.0884,-0.16351 0.17468,-0.32818 0.26199,-0.49248 z m 0.28784,0.0465 c 0.046,0.009 0.0914,0.0194 0.13695,0.03 -0.0156,0.0328 -0.0309,0.0654 -0.047,0.0977 -0.0299,-0.0426 -0.0595,-0.0853 -0.0899,-0.12764 z m 2.83187,0.009 c 0.0278,0.0222 0.0575,0.0426 0.0842,0.0656 -0.1106,0.0669 -0.22118,0.13327 -0.33072,0.20206 -0.0376,-0.0196 -0.0748,-0.0393 -0.11266,-0.0584 0.118,-0.0728 0.23903,-0.13996 0.35915,-0.20929 z m -4.747512,0.0455 c -0.07329,0.15399 -0.144468,0.30898 -0.209291,0.46509 -0.124354,0.30004 -0.259045,0.60141 -0.351917,0.91415 -0.08175,0.003 -0.163705,0.005 -0.245462,0.0104 0.163513,-0.45084 0.377508,-0.88101 0.586529,-1.31465 0.0725,-0.0278 0.146058,-0.0516 0.220141,-0.0749 z m 3.555342,0.003 c 0.0251,0.0111 0.0503,0.0222 0.0755,0.0336 0.10238,0.046 0.20534,0.0922 0.30747,0.139 0.006,0.0116 0.0128,0.0237 0.0191,0.0357 -0.0698,0.054 -0.13871,0.1085 -0.20671,0.16485 -0.007,-0.013 -0.0161,-0.025 -0.0233,-0.0382 -0.0601,-0.11007 -0.11652,-0.22243 -0.17208,-0.33487 z m -2.77864,0.0155 c 0.0738,0.09 0.14656,0.17953 0.22117,0.26923 0.0389,0.0466 0.0787,0.0932 0.11782,0.13953 -0.15796,0.29766 -0.29314,0.59394 -0.37569,0.92811 -0.01,0.04 -0.0174,0.0807 -0.0264,0.12092 -0.15002,-0.0267 -0.30031,-0.05 -0.45165,-0.0677 0.0302,-0.0871 0.0601,-0.17387 0.0858,-0.26251 0.0606,-0.20981 0.10993,-0.42331 0.18242,-0.62942 0.0617,-0.17489 0.15098,-0.33782 0.2465,-0.49816 z m 1.47329,0.006 c 0.15901,0.0444 0.31447,0.0986 0.46767,0.15864 0.0521,0.0841 0.10396,0.16806 0.15555,0.25167 0.0878,0.14182 0.1675,0.28809 0.25269,0.4315 -0.12937,0.11668 -0.24067,0.25223 -0.36741,0.37155 -0.0563,-0.0942 -0.11078,-0.18849 -0.16899,-0.28215 -0.14552,-0.23442 -0.29635,-0.46543 -0.45113,-0.6935 0.0384,-0.0788 0.0767,-0.15781 0.11162,-0.23771 z m 4.03128,0.0108 c 0.0328,0.0778 0.0613,0.15732 0.0915,0.23616 -0.0661,-0.0532 -0.13357,-0.10445 -0.20051,-0.15657 0.0365,-0.0265 0.0723,-0.0534 0.10904,-0.0796 z m -1.08727,0.007 h 5.3e-4 c 0.003,0.0193 0.006,0.0382 0.009,0.0573 -0.0135,-0.0132 -0.0278,-0.0253 -0.0413,-0.0382 0.0106,-0.006 0.0215,-0.0128 0.032,-0.0191 z m -0.20619,0.1235 c 0.0952,0.091 0.18736,0.1845 0.27388,0.28319 0.004,0.0222 0.007,0.0444 0.0104,0.0667 -0.0492,0.0352 -0.0976,0.0718 -0.14625,0.10749 -0.014,-0.0114 -0.026,-0.0251 -0.0403,-0.0362 -0.11986,-0.0926 -0.24733,-0.17237 -0.37724,-0.24804 0.0929,-0.0579 0.18565,-0.11676 0.27957,-0.17312 z m -6.142263,0.0134 c 0.0087,0.0482 0.06059,0.088 0.110069,0.0703 -0.05212,0.031 -0.106309,0.0579 -0.156578,0.092 -0.06244,0.0423 -0.117006,0.093 -0.185002,0.12661 -0.0844,0.0418 -0.174349,0.0735 -0.265102,0.10232 0.08864,-0.10504 0.179142,-0.20852 0.274921,-0.30747 0.07567,-0.0238 0.149461,-0.052 0.221692,-0.0837 z m 0.64027,0.0212 c -0.07645,0.15479 -0.152836,0.30973 -0.224276,0.46716 -0.109009,0.24077 -0.20704,0.48688 -0.291971,0.7369 -0.17145,0.0148 -0.342225,0.0321 -0.513149,0.0517 -0.189177,0.0217 -0.377208,0.0513 -0.565856,0.078 -0.02672,0.004 -0.123333,0.0266 -0.196887,0.0398 0.100806,-0.25692 0.249309,-0.48911 0.415996,-0.70951 0.121973,-0.0336 0.242809,-0.0766 0.35605,-0.11576 0.0979,-0.0339 0.196543,-0.0707 0.288354,-0.11937 0.05424,-0.0288 0.0996,-0.0736 0.149346,-0.10904 0.09075,-0.0648 0.188643,-0.11891 0.286803,-0.17156 0.0971,-0.0519 0.195856,-0.10175 0.29559,-0.14832 z m 6.517433,0.0496 c 0.17171,0.12964 0.34127,0.26318 0.5085,0.4005 7.9e-4,0.002 0.002,0.005 0.003,0.007 0.005,0.0148 0.008,0.0301 0.0124,0.045 -0.14553,0.10715 -0.29147,0.21419 -0.4346,0.32505 -7.9e-4,-0.0442 -0.002,-0.0881 -0.003,-0.13229 -0.002,-0.21484 -0.0323,-0.43353 -0.0863,-0.64492 z m 1.4857,0.0527 c 0.001,0.003 0.002,0.006 0.004,0.009 0.0407,0.11694 0.0736,0.23725 0.10904,0.35605 -0.0114,0.0243 -0.0222,0.0493 -0.0341,0.0729 -0.045,0.09 -0.0894,0.18033 -0.13487,0.26975 l -0.0884,0.0584 c -0.0431,-0.1942 -0.093,-0.38673 -0.14986,-0.57723 0.0201,-0.013 0.0393,-0.0271 0.0594,-0.0398 0.0785,-0.0494 0.15694,-0.0987 0.23461,-0.14883 z m -4.44108,0.0227 c 0.15663,0.0733 0.31065,0.15327 0.46199,0.23926 -0.0749,0.0556 -0.14735,0.11367 -0.22117,0.17002 -0.0807,-0.13599 -0.15774,-0.2746 -0.24082,-0.40928 z m 1.22112,0.009 c 0.0127,0.006 0.025,0.0133 0.0377,0.0196 -0.006,0.005 -0.0128,0.009 -0.0191,0.0134 -0.006,-0.0108 -0.0122,-0.0222 -0.0186,-0.0331 z m 3.45353,0.0217 c 0.0153,0.0151 0.0319,0.0292 0.047,0.0444 -0.007,0.009 -0.0148,0.0181 -0.0222,0.0269 -0.008,-0.0236 -0.0162,-0.0478 -0.0248,-0.0713 z m -1.90324,0.0155 c 0.008,0.0378 0.0171,0.0761 0.0243,0.11472 0.0262,0.14155 0.0378,0.287 0.045,0.43305 -0.0593,-0.0839 -0.11691,-0.16862 -0.17829,-0.25064 -0.0357,-0.0479 -0.0772,-0.0894 -0.1142,-0.13539 0.0751,-0.0529 0.14917,-0.1075 0.22324,-0.16174 z m -1.75958,0.0217 c 0.0191,0.0331 0.038,0.0664 0.0579,0.0992 -0.0495,0.0381 -0.0994,0.0758 -0.14832,0.11472 -0.0318,-0.0214 -0.0636,-0.0427 -0.0961,-0.063 0.0617,-0.0508 0.12358,-0.10195 0.18655,-0.1509 z m 0.4501,0.0682 c 0.0672,0.037 0.13437,0.0742 0.19999,0.11473 0.086,0.0532 0.16566,0.11143 0.24133,0.17415 -0.005,0.004 -0.0102,0.007 -0.015,0.0114 -0.0863,0.0675 -0.17009,0.13868 -0.25476,0.20826 -0.0685,-0.0931 -0.13545,-0.18764 -0.19948,-0.28474 -0.0312,-0.0474 -0.0598,-0.096 -0.0894,-0.14418 0.0325,-0.0222 0.0646,-0.0457 0.0977,-0.0672 0.006,-0.004 0.0133,-0.008 0.0196,-0.0124 z m -2.47737,0.016 c 0.0696,0.10398 0.14027,0.20707 0.20774,0.31264 0.12382,0.19341 0.24502,0.38864 0.36329,0.58549 -0.11059,0.1008 -0.22106,0.20215 -0.33642,0.29766 -0.15425,-0.24447 -0.29808,-0.49628 -0.46715,-0.7307 0.0733,-0.15691 0.15106,-0.31163 0.23254,-0.46509 z m 5.86993,0.0708 c 0.027,0.0296 0.0518,0.0604 0.078,0.0909 -0.0431,0.0352 -0.0888,0.067 -0.13539,0.0977 -0.006,-0.0196 -0.009,-0.0393 -0.015,-0.0589 0.0106,-0.0212 0.0209,-0.0426 0.0315,-0.0641 0.0122,-0.0241 0.0265,-0.045 0.0408,-0.0656 z m -6.64508,0.0486 c 0.10319,0.12277 0.20417,0.24792 0.30128,0.37517 -0.0889,0.20427 -0.16882,0.41309 -0.24185,0.62529 -0.13256,-0.0288 -0.26534,-0.0562 -0.39842,-0.0822 0.0754,-0.31988 0.18158,-0.62222 0.33899,-0.91829 z m 5.75418,0.0165 c 0.0259,0.0881 0.0516,0.17593 0.0749,0.2651 -0.0664,-0.0603 -0.12993,-0.12395 -0.19792,-0.18242 0.0408,-0.0283 0.082,-0.0549 0.12299,-0.0827 z m -2.7895,0.0465 c 0.0611,0.095 0.12406,0.18878 0.18914,0.28112 -0.0902,-0.0736 -0.18205,-0.14564 -0.27492,-0.21601 0.0286,-0.0217 0.0569,-0.0439 0.0858,-0.0651 z m -0.52968,0.0253 c 0.0201,0.0318 0.0383,0.0646 0.0584,0.0966 -0.087,0.0691 -0.17488,0.13772 -0.2651,0.2036 -0.0116,0.008 -0.0222,0.0184 -0.0336,0.0269 -0.0193,-0.0333 -0.0391,-0.0662 -0.0584,-0.0992 0.0984,-0.0775 0.19868,-0.15275 0.29869,-0.22789 z m 1.61489,0.0615 c 0.002,0.0156 0.005,0.0309 0.007,0.0465 -0.01,-0.0101 -0.0197,-0.0202 -0.0295,-0.03 0.008,-0.006 0.0151,-0.011 0.0227,-0.0165 z m 0.20412,0.007 c 0.11588,0.15029 0.22716,0.30457 0.3359,0.46147 -0.0243,0.0191 -0.0485,0.0378 -0.0729,0.0563 -0.019,0.0145 -0.037,0.0307 -0.0558,0.0455 -0.0519,-0.0804 -0.10666,-0.15916 -0.16381,-0.23616 -0.0127,-0.10927 -0.0275,-0.2181 -0.0434,-0.32711 z m 2.60552,0.0434 c 0.0881,0.1106 0.16894,0.22669 0.24805,0.34416 -0.0646,0.14711 -0.11893,0.30069 -0.19275,0.43615 -0.0542,0.0992 -0.11804,0.19245 -0.18604,0.28267 -0.0124,-0.0172 -0.0261,-0.034 -0.0388,-0.0512 0.0132,-0.28469 0.002,-0.5717 -0.0491,-0.85163 0.0765,-0.0495 0.15033,-0.10198 0.21859,-0.16019 z m -1.32653,0.0884 c 0.11774,0.10501 0.23253,0.21238 0.34313,0.32297 l -0.0357,0.0238 c -0.0855,0.0569 -0.16984,0.11493 -0.25477,0.17208 -0.002,-0.16087 -0.0111,-0.32105 -0.0429,-0.48007 -0.003,-0.013 -0.007,-0.0257 -0.01,-0.0388 z m -1.68362,0.009 c 0.0894,0.0884 0.17438,0.18115 0.2527,0.28008 0.0135,0.13652 0.0224,0.27301 0.0274,0.4098 -0.0217,0.0175 -0.0432,0.0355 -0.0651,0.0527 -0.11324,-0.0966 -0.23282,-0.18712 -0.35399,-0.27285 -0.0294,-0.0442 -0.0563,-0.0892 -0.0889,-0.13229 -0.0249,-0.0331 -0.0495,-0.0661 -0.0744,-0.0992 0.10028,-0.0799 0.20071,-0.16017 0.30231,-0.23823 z m 1.47795,0.0202 c 0.0237,0.10197 0.0429,0.20468 0.0527,0.30903 0.01,0.10424 0.008,0.21066 0.003,0.31729 -0.0722,0.0495 -0.1438,0.10037 -0.2155,0.15038 -0.10028,-0.14314 -0.19793,-0.28807 -0.29662,-0.43253 0.0738,-0.0569 0.1476,-0.11366 0.22169,-0.17054 0.0773,-0.0593 0.15648,-0.11584 0.23461,-0.17363 z m -2.49391,0.0263 c 0.10425,0.0844 0.20504,0.17294 0.30955,0.25787 -0.0325,0.0273 -0.0662,0.0531 -0.0987,0.0801 -0.073,-0.11085 -0.14337,-0.22341 -0.21084,-0.33797 z m -0.23977,0.006 c 0.005,0.008 0.01,0.0148 0.0139,0.0227 0.0844,0.15451 0.17699,0.29611 0.27595,0.43925 -0.0733,0.0595 -0.14526,0.12061 -0.22014,0.17828 -0.0331,0.0254 -0.0667,0.0499 -0.0997,0.0755 -0.0873,-0.15902 -0.17592,-0.31722 -0.26561,-0.4749 0.0979,-0.0802 0.19637,-0.16065 0.29559,-0.24082 z m -0.6165,0.10336 c 0.018,0.0307 0.0362,0.0615 0.0543,0.0925 -0.13017,0.11033 -0.25696,0.22547 -0.38396,0.33951 -0.0122,-0.0214 -0.0253,-0.0424 -0.0377,-0.0636 l 0.001,-10e-4 c 0.12515,-0.11933 0.2415,-0.24785 0.36638,-0.36742 z m 4.47621,0.0253 c 0.0286,0.15558 0.0411,0.31633 0.0398,0.47852 -0.0751,-0.0902 -0.15364,-0.17759 -0.23513,-0.26252 0.0262,-0.0463 0.0519,-0.0927 0.076,-0.14004 l 0.0109,-0.007 c 0.0349,-0.0233 0.072,-0.046 0.10852,-0.0687 z m -6.01255,0.0894 c 0.0426,0.0614 0.0857,0.12176 0.12454,0.18551 0.0849,0.13891 0.17387,0.27408 0.26251,0.40928 -0.18944,-0.0373 -0.37799,-0.0776 -0.56585,-0.11885 0.0574,-0.16007 0.11715,-0.31877 0.1788,-0.47594 z m 1.69601,0.15812 c 0.0878,0.15479 0.17551,0.30924 0.26097,0.46561 -0.11615,0.0886 -0.23264,0.17699 -0.34933,0.2651 -0.0323,-0.007 -0.0649,-0.0112 -0.0971,-0.0186 -0.0656,-0.12542 -0.13481,-0.24903 -0.20412,-0.37259 0.12937,-0.11298 0.25814,-0.22759 0.38963,-0.33951 z m 1.16841,5.3e-4 c 0.086,0.0651 0.17237,0.13029 0.25942,0.19379 0.0691,0.10795 0.13317,0.21852 0.19482,0.33176 -0.0857,0.055 -0.17291,0.10854 -0.25942,0.16278 -0.0296,-0.0532 -0.0582,-0.10703 -0.0889,-0.15968 -0.081,-0.13916 -0.16897,-0.27308 -0.25735,-0.40669 0.0503,-0.0408 0.10115,-0.0815 0.15141,-0.12196 z m 3.94705,0.0295 c 0.12224,0.20239 0.22681,0.41401 0.31677,0.63148 -0.0788,0.21114 -0.17217,0.41302 -0.27853,0.60669 -0.12222,-0.18759 -0.25776,-0.36634 -0.40566,-0.53382 -0.0109,-0.0122 -0.0192,-0.0258 -0.0295,-0.0382 0.11774,-0.15584 0.22544,-0.31655 0.31885,-0.49196 0.0296,-0.0556 0.0542,-0.11463 0.078,-0.17415 z m -1.30173,0.0491 c -0.11827,0.186 -0.24895,0.36543 -0.38706,0.53899 0.008,-0.0982 0.0138,-0.19614 0.0186,-0.29456 0.1217,-0.0828 0.24489,-0.164 0.36845,-0.24443 z m -1.31,0.0331 c 0,0.0564 0.002,0.11264 0.002,0.16847 -0.0236,-0.0381 -0.0483,-0.0761 -0.0718,-0.11472 0.0233,-0.018 0.0468,-0.0358 0.0698,-0.0537 z m 1.52497,0.0703 c 0.0495,0.0516 0.0991,0.10266 0.14883,0.15451 0.0617,0.0643 0.11481,0.13676 0.1664,0.21032 -0.004,0.0611 -0.008,0.12263 -0.0129,0.1819 -0.004,0.0434 -0.008,0.0868 -0.0124,0.13023 -0.0923,0.10053 -0.18621,0.19973 -0.27802,0.29869 0.004,-0.0497 0.009,-0.0996 0.0129,-0.14935 0.0238,-0.28389 0.0114,-0.55432 -0.0248,-0.8263 z m -4.71444,0.0517 5.3e-4,5.3e-4 c 0.0127,0.0212 0.0245,0.0427 0.0367,0.0636 -0.0749,0.0627 -0.15081,0.12401 -0.23151,0.17984 -0.0185,0.013 -0.0373,0.0255 -0.0558,0.0382 -0.0182,-0.005 -0.0365,-0.008 -0.0548,-0.0124 0.002,-0.002 0.005,-0.004 0.007,-0.006 0.10266,-0.0841 0.19976,-0.17465 0.29818,-0.26355 z m 1.54151,0.0186 c 0.11933,0.17674 0.23065,0.35991 0.33331,0.54829 -0.0492,0.0317 -0.0983,0.0636 -0.14728,0.0956 -0.11271,-0.0119 -0.22499,-0.0262 -0.33745,-0.0419 -0.0598,-0.11271 -0.12027,-0.22474 -0.18086,-0.33693 0.11113,-0.0881 0.22195,-0.1762 0.33228,-0.2651 z m -4.64313,0.005 c 0.127264,0 0.254397,0.003 0.380338,0.0114 -0.11086,0.35004 -0.138059,0.70327 -0.15658,1.06918 -0.03678,-0.003 -0.07278,-0.008 -0.109553,-0.0114 -0.08361,-0.008 -0.167289,-0.0166 -0.25063,-0.0253 0.0037,-0.10822 0.0094,-0.21632 0.01757,-0.32453 0.01905,-0.24686 0.06012,-0.48492 0.118856,-0.71934 z m -0.230995,0.003 c 0.004,-2.7e-4 0.0074,0 0.01138,0 -0.0056,0.0246 -0.01331,0.048 -0.0181,0.0729 -0.06112,0.31194 -0.09141,0.62795 -0.104902,0.94464 -0.118533,-0.0143 -0.236244,-0.0306 -0.353983,-0.0496 0.02593,-0.17012 0.0555,-0.33975 0.09095,-0.50591 0.03254,-0.15134 0.07514,-0.29838 0.121438,-0.4439 0.0844,-0.006 0.169077,-0.0144 0.253215,-0.0181 z m 6.728785,0.007 c 0.028,0.0413 0.0559,0.0825 0.0842,0.1235 0.0222,0.032 0.0462,0.0633 0.0692,0.0951 -0.0479,0.0347 -0.0963,0.0682 -0.14417,0.10284 -0.003,-0.10717 -0.006,-0.21427 -0.009,-0.32143 z m -5.90765,0.0191 c 0.15796,0.0153 0.3159,0.0348 0.47491,0.0599 -0.064,0.32835 -0.10832,0.66174 -0.16071,0.99167 -0.004,0.0259 -0.005,0.0521 -0.009,0.078 -0.15584,-0.0209 -0.31259,-0.0399 -0.469219,-0.0563 0.01667,-0.32094 0.03669,-0.63858 0.125059,-0.95344 0.0114,-0.0408 0.0258,-0.0802 0.0388,-0.11988 z m -1.296041,0.008 c -0.02249,0.0746 -0.04502,0.14912 -0.06459,0.22479 -0.05662,0.21934 -0.09769,0.44556 -0.129707,0.67231 -0.05794,-0.0111 -0.115702,-0.0212 -0.173117,-0.0341 -0.339195,-0.0762 -0.667728,-0.20225 -0.984435,-0.3483 0.01852,-0.11641 0.04216,-0.23193 0.07338,-0.34623 0.150019,0.008 0.33832,-0.0536 0.444418,-0.0703 0.275431,-0.0434 0.554921,-0.0746 0.834056,-0.0982 z m 6.768581,0.001 c 0.0805,0.12562 0.15934,0.25286 0.23719,0.38033 5.3e-4,0.0214 0.001,0.0426 0.002,0.0641 -0.0466,0.0349 -0.0935,0.0697 -0.14004,0.10439 -0.0505,-0.069 -0.0963,-0.1407 -0.14521,-0.21187 -0.008,-0.0122 -0.0197,-0.022 -0.0284,-0.0336 0.002,-0.0815 0.003,-0.1632 0.002,-0.24443 0.0239,-0.0199 0.0484,-0.039 0.0724,-0.0589 z m 1.58026,0.0873 h 5.3e-4 c 0.0246,0.32703 -0.007,0.66142 -0.0475,0.98288 -5.3e-4,0.004 -0.001,0.008 -0.002,0.0114 -0.0362,-0.018 -0.0728,-0.0357 -0.10904,-0.0537 -0.0963,-0.12461 -0.18713,-0.2527 -0.27285,-0.38499 0.0804,-0.0974 0.16121,-0.19429 0.23874,-0.29456 0.0661,-0.0855 0.13006,-0.17285 0.19224,-0.26096 z m -6.37325,0.002 c 0.12594,0.0249 0.25107,0.0522 0.37569,0.0832 -0.0238,0.0735 -0.0509,0.1471 -0.0729,0.22066 -0.055,0.18203 -0.10853,0.36944 -0.13022,0.55862 -0.002,0.0151 -0.003,0.0304 -0.005,0.0455 -0.0765,0.0571 -0.15298,0.11416 -0.22944,0.17157 -0.0389,-0.006 -0.0781,-0.0123 -0.11731,-0.0181 0.0183,-0.10795 0.0399,-0.21612 0.0574,-0.32143 0.0378,-0.22727 0.067,-0.45513 0.10904,-0.68161 0.004,-0.0198 0.009,-0.0388 0.0124,-0.0584 z m 1.97042,0.0894 c 0.0317,0.0568 0.0645,0.113 0.0956,0.17001 -0.0767,-0.0212 -0.15374,-0.0409 -0.23047,-0.062 0.0455,-0.0355 0.0907,-0.0712 0.13487,-0.108 z m 3.77496,0.004 h 5.3e-4 c -0.003,0.0341 -0.006,0.069 -0.008,0.10284 -10e-4,0.0169 -0.004,0.0335 -0.005,0.0501 -0.0225,-0.0317 -0.0452,-0.0639 -0.0677,-0.0956 0.0267,-0.019 0.0534,-0.0383 0.0801,-0.0574 z m -5.17074,0.0388 c 0.15716,0.0392 0.31487,0.0758 0.47387,0.10594 -0.21087,0.16536 -0.42388,0.32826 -0.63872,0.48886 0.005,-0.0257 0.008,-0.0508 0.0145,-0.0765 0.0413,-0.17463 0.0935,-0.34712 0.15038,-0.51831 z m 3.85455,0.0667 c 0.0148,0.0143 0.0317,0.0265 0.046,0.0413 0.0119,0.0124 0.0222,0.0263 0.0336,0.0393 -0.001,0.0257 -0.001,0.0513 -0.003,0.077 -0.0299,-0.0497 -0.0577,-0.10064 -0.0879,-0.15038 0.004,-0.002 0.007,-0.005 0.0109,-0.007 z m -1.5534,0.0656 c 0.0307,0.0569 0.0609,0.11365 0.0909,0.17053 -0.0868,-0.0127 -0.1734,-0.0253 -0.26045,-0.0377 0.0571,-0.0434 0.11289,-0.0886 0.1695,-0.13281 z m 2.62516,0.004 c 0.0548,0.0741 0.10844,0.14833 0.15659,0.22531 0.0106,0.0169 0.0215,0.0337 0.032,0.0506 -0.0161,0.019 -0.0324,0.0386 -0.0486,0.0574 -0.022,0.0257 -0.0462,0.049 -0.0687,0.0744 -0.0193,-0.006 -0.0386,-0.012 -0.0579,-0.0176 -0.0606,-0.0897 -0.12032,-0.17953 -0.17932,-0.26975 0.055,-0.0405 0.11086,-0.0802 0.16588,-0.12041 z m -4.18992,0.0217 c 0.0119,0.002 0.0243,0.004 0.0362,0.007 -0.22066,0.15319 -0.4401,0.30791 -0.65785,0.4656 0.20928,-0.15505 0.41661,-0.312 0.62167,-0.47232 z m 2.93264,0.032 v 5.3e-4 c 0.0439,0.0743 0.0863,0.1494 0.13022,0.22375 -0.12197,0.001 -0.24392,0.002 -0.36535,-0.002 -0.008,-0.0164 -0.0164,-0.0327 -0.0248,-0.0491 0.0878,-0.0564 0.17367,-0.1149 0.25993,-0.17311 z m -2.58072,0.0429 c 0.17515,0.0415 0.34988,0.0858 0.52451,0.13074 0.005,0.009 0.009,0.0172 0.0134,0.0258 -0.0677,0.0511 -0.13484,0.10268 -0.20257,0.15348 -0.0246,0.0183 -0.0498,0.0365 -0.0744,0.0548 -0.0865,-0.12277 -0.1742,-0.24366 -0.26097,-0.36484 z m -0.18655,0.093 c 0.0569,0.0836 0.11338,0.16752 0.17053,0.25166 0.0339,0.0497 0.0677,0.0988 0.1018,0.14831 -0.20188,0.1479 -0.40402,0.29572 -0.60616,0.44442 -0.22093,-0.0405 -0.44158,-0.0811 -0.66198,-0.12454 0.0212,-0.0167 0.0429,-0.0335 0.0641,-0.0501 0.30056,-0.23733 0.61635,-0.45303 0.93173,-0.66972 z m 5.62704,0.0289 c 0.11402,0.13732 0.23144,0.27015 0.33383,0.41858 0.0421,0.0609 0.0774,0.12334 0.11524,0.18552 -0.0765,0.12462 -0.15843,0.24553 -0.24495,0.3638 -0.11429,-0.0481 -0.2268,-0.10032 -0.33951,-0.15244 0.0198,-0.24686 0.0431,-0.49342 0.0667,-0.73949 0.022,-0.0246 0.0444,-0.0483 0.0662,-0.0729 z m -2.40709,0.0496 c 0.002,0.003 0.005,0.007 0.008,0.0109 h -0.009 c 5.3e-4,-0.004 5.3e-4,-0.007 0.001,-0.0109 z m 3.35949,0.0248 c 0.013,0.0381 0.0268,0.0761 0.0388,0.11421 -0.007,0.013 -0.0119,0.028 -0.0124,0.046 -0.005,0.18256 -0.0356,0.39994 -0.11369,0.56689 -0.01,0.0212 -0.0232,0.0399 -0.0346,0.06 -0.0426,-0.0897 -0.089,-0.17783 -0.1385,-0.26407 0.0973,-0.16775 0.18266,-0.34278 0.26045,-0.52297 z m -5.57227,0.005 c 0.18097,0.0392 0.36777,0.0593 0.55087,0.0858 0.0175,0.003 0.0352,0.004 0.0527,0.007 0.0204,0.0389 0.0416,0.0769 0.062,0.11575 -0.12938,0.0788 -0.25887,0.15758 -0.38137,0.24805 -0.0251,0.0185 -0.0511,0.0345 -0.0765,0.0522 -0.0736,-0.16563 -0.15107,-0.32876 -0.23151,-0.49041 0.008,-0.006 0.0158,-0.012 0.0238,-0.0181 z m -5.83892,0.0739 c 0.293687,0.13176 0.596791,0.24496 0.90847,0.32195 0.08281,0.0204 0.166508,0.0376 0.250114,0.0537 -0.01402,0.11907 -0.02612,0.23804 -0.03617,0.35657 -0.005,0.0587 -0.0043,0.11596 -0.0062,0.17363 -0.3937,-0.0368 -0.786349,-0.1046 -1.146183,-0.26097 7.94e-4,-0.0519 0.0036,-0.10394 0.0041,-0.15606 0.0011,-0.16352 0.0097,-0.32667 0.02585,-0.48886 z m 5.65237,0.0667 c 0.0789,0.15929 0.15157,0.32174 0.22221,0.48525 -0.0675,0.0431 -0.13634,0.0856 -0.20619,0.12764 -0.007,-0.0119 -0.0132,-0.025 -0.0207,-0.0372 -0.0791,-0.12886 -0.16696,-0.25415 -0.25321,-0.38034 0.086,-0.0648 0.17216,-0.13025 0.25787,-0.19534 z m 1.32498,0.0181 v 5.3e-4 c 0.0206,0.002 0.0406,0.005 0.061,0.007 0.0638,0.006 0.1277,0.008 0.1912,0.0114 0.0238,0.0487 0.0514,0.0957 0.0744,0.14469 0.0243,0.0516 0.0457,0.10471 0.0682,0.1571 -0.13862,0.0796 -0.27336,0.16308 -0.40618,0.24959 -0.054,-0.15187 -0.11273,-0.3015 -0.18655,-0.44596 0.0659,-0.0413 0.13177,-0.0827 0.19792,-0.12403 z m 0.48938,0.0274 c 0.11642,0.001 0.23317,0.002 0.34985,0.002 -10e-4,0.005 -0.002,0.0105 -0.003,0.016 -0.0857,0.0579 -0.17362,0.11348 -0.26252,0.16692 -0.027,-0.0619 -0.0551,-0.12338 -0.0842,-0.18449 z m 0.72295,0.007 h 5.3e-4 c 0.008,2.7e-4 0.0169,1.5e-4 0.0253,5.3e-4 0.0677,0.0907 0.12463,0.18933 0.1757,0.29146 -10e-4,0.0614 -10e-4,0.12283 -0.003,0.18448 -0.0323,0.031 -0.0647,0.0618 -0.0971,0.0925 -0.0254,-0.0733 -0.0493,-0.14686 -0.0755,-0.21962 -0.0349,-0.0966 -0.0727,-0.19158 -0.11317,-0.28577 0.0291,-0.0212 0.0582,-0.0421 0.0873,-0.0636 z m 0.41289,0.0481 c 0.0452,0.009 0.0894,0.0214 0.13385,0.0331 0.006,0.008 0.011,0.0169 0.0165,0.0253 -0.0484,0.0519 -0.0947,0.10578 -0.14417,0.15658 -0.002,-0.003 -0.004,-0.007 -0.005,-0.0108 5.3e-4,-0.068 -8e-4,-0.13562 -0.001,-0.20361 z m 1.5565,0.0104 c -0.013,0.13123 -0.023,0.26331 -0.0346,0.3948 -0.0759,-0.0365 -0.15118,-0.0743 -0.22685,-0.11162 0.0868,-0.0947 0.17416,-0.18899 0.26148,-0.28318 z m -3.55431,0.14469 c 0.004,0.008 0.009,0.0172 0.0134,0.0258 0.0696,0.13441 0.12437,0.2762 0.17569,0.42013 -0.12832,0.0865 -0.25564,0.17438 -0.38344,0.26355 -0.0394,-0.007 -0.0776,-0.0178 -0.11678,-0.0263 -0.0161,-0.0355 -0.0358,-0.0694 -0.0501,-0.10593 -0.0352,-0.09 -0.0753,-0.17674 -0.11265,-0.26511 0.15769,-0.10423 0.31433,-0.21078 0.47387,-0.31212 z m 2.62155,0.047 c 0.0616,0.0267 0.12336,0.053 0.18448,0.0827 0.008,0.004 0.0163,0.008 0.0248,0.0119 0.0273,0.0339 0.0552,0.0672 0.0827,0.10077 -0.0611,0.0648 -0.12408,0.12876 -0.1881,0.1912 -0.0391,-0.0693 -0.0822,-0.13638 -0.12299,-0.20464 0.007,-0.0603 0.0125,-0.12131 0.0191,-0.1819 z m -4.00286,0.0222 v 5.3e-4 c 0.0929,0.13468 0.18325,0.27011 0.26924,0.40928 -0.009,0.007 -0.0184,0.0125 -0.0274,0.0191 -0.22225,-0.0373 -0.44594,-0.0674 -0.66766,-0.10335 -0.003,-5.3e-4 -0.007,-0.001 -0.0103,-0.002 0.0701,-0.0508 0.14075,-0.10084 0.20981,-0.15296 0.0754,-0.0569 0.15094,-0.11365 0.22634,-0.17053 z m 2.74867,0.007 c 0.0578,0.14591 0.1077,0.29507 0.15606,0.44494 -0.002,0.002 -0.003,0.003 -0.004,0.005 -0.0852,0.0765 -0.17334,0.1485 -0.26304,0.21756 -0.0135,-0.032 -0.0263,-0.0646 -0.0393,-0.0966 0.0571,-0.18838 0.1091,-0.37868 0.15038,-0.57102 z m 0.89762,0.007 c 0.041,0.0635 0.0841,0.12664 0.12351,0.1912 -0.0124,0.1061 -0.0232,0.21224 -0.0367,0.31833 -0.006,0.0516 -0.0133,0.10291 -0.0196,0.15451 -0.063,-0.13653 -0.12529,-0.2733 -0.19276,-0.40824 -0.014,-0.028 -0.0276,-0.057 -0.0413,-0.0853 0.0558,-0.0569 0.11268,-0.11232 0.16692,-0.17053 z m -7.509618,0.005 c 0.125413,0.0201 0.251285,0.0376 0.377756,0.0522 -7.94e-4,0.0397 -0.0028,0.0792 -0.0031,0.11885 -0.0013,0.12224 -5.3e-4,0.24467 -5.3e-4,0.36691 -0.04313,-0.002 -0.08555,-0.005 -0.128674,-0.008 -0.09472,-0.006 -0.190246,-0.0117 -0.286287,-0.0186 0.0061,-0.17012 0.01992,-0.34121 0.04082,-0.51159 z m 6.395988,0.006 h 5.3e-4 c -0.0183,0.0804 -0.0388,0.16065 -0.0605,0.24029 -0.002,-0.006 -0.005,-0.011 -0.007,-0.0165 -0.018,-0.0495 -0.0386,-0.0978 -0.0579,-0.14676 0.0122,-0.007 0.0245,-0.0135 0.0367,-0.0207 0.0304,-0.0175 0.0587,-0.0381 0.0884,-0.0563 z m -5.81101,0.0687 c 0.06773,0.007 0.135871,0.014 0.203605,0.0207 0.04948,0.005 0.09832,0.0113 0.147796,0.016 -0.01085,0.15478 -0.02289,0.30978 -0.02791,0.46509 -0.108481,-0.01 -0.217342,-0.019 -0.326077,-0.0258 -7.94e-4,-0.15874 -2.49e-4,-0.31719 0.0026,-0.47594 z m 0.554487,0.0584 c 0.152663,0.0164 0.305483,0.0349 0.457333,0.0553 -0.003,0.0352 -0.005,0.0702 -0.008,0.10541 -0.0704,0.0545 -0.14202,0.108 -0.21187,0.1633 -0.0624,0.0495 -0.12309,0.10089 -0.185,0.1509 -0.0254,-0.003 -0.05031,-0.008 -0.07545,-0.0109 0.0024,-0.10187 0.006,-0.2038 0.01344,-0.30593 0.0042,-0.0526 0.0064,-0.10548 0.0093,-0.15813 z m 9.078003,0.008 c 0.0265,0.13679 0.0488,0.27502 0.063,0.41393 -0.009,0.009 -0.0184,0.0177 -0.0269,0.0263 -0.0471,0.0471 -0.0922,0.0963 -0.13901,0.14366 -0.007,-0.002 -0.0146,-0.005 -0.0217,-0.008 -0.0204,-0.0646 -0.0409,-0.12901 -0.0662,-0.19172 0.0571,-0.0767 0.1082,-0.15761 0.14418,-0.24598 0.018,-0.0442 0.0333,-0.0909 0.0465,-0.13849 z m -4.12585,0.0429 c 0.0505,0.12912 0.0999,0.25896 0.14986,0.38861 -0.018,0.0579 -0.0368,0.11545 -0.0553,0.17312 -0.055,-0.005 -0.11007,-0.0107 -0.16537,-0.015 -0.0857,-0.007 -0.17187,-0.0135 -0.25786,-0.0207 -0.0302,-0.0913 -0.06,-0.18235 -0.0899,-0.27337 0.0352,-0.0228 0.0695,-0.0478 0.1049,-0.0703 0.10214,-0.0648 0.20784,-0.12395 0.31368,-0.18242 z m 3.57084,0.0543 c 0.0444,0.0847 0.088,0.16976 0.12506,0.25734 -0.023,0.0265 -0.0461,0.0524 -0.0692,0.0775 -0.0728,-0.0286 -0.14583,-0.0577 -0.21859,-0.0868 0.0577,-0.0802 0.10933,-0.1647 0.16278,-0.24804 z m -7.68997,0.008 0.0104,0.002 c -0.068,0.055 -0.13408,0.1121 -0.20102,0.16846 v -0.0217 c 0.0638,-0.0495 0.12665,-0.0994 0.19068,-0.14832 z m 6.55257,0.0269 h 5.3e-4 c 0.073,0.0357 0.1471,0.0695 0.22066,0.10439 -0.003,0.0381 -0.007,0.0764 -0.01,0.11472 -0.001,0.0185 -0.004,0.0363 -0.006,0.0548 -0.007,-0.0108 -0.0145,-0.0212 -0.0217,-0.032 -0.0553,-0.0841 -0.11863,-0.16353 -0.18345,-0.24185 z m -6.19548,0.0351 c 0.19447,0.0378 0.3892,0.0743 0.58394,0.11162 -0.16669,0.12567 -0.33059,0.25475 -0.49093,0.38758 -0.0675,-0.007 -0.13408,-0.0167 -0.20102,-0.0264 0.0265,-0.15981 0.0794,-0.31436 0.10801,-0.47284 z m 5.95105,0.0186 c -0.0148,0.16854 -0.0291,0.33714 -0.046,0.5054 -0.0529,-0.10106 -0.10852,-0.20075 -0.1633,-0.30076 0.0709,-0.0672 0.14209,-0.13347 0.20929,-0.20464 z m -3.67987,0.01 c 0.002,0.006 0.005,0.0107 0.007,0.0165 0.0243,0.0606 0.0475,0.12108 0.0713,0.18139 -0.0852,-0.0238 -0.17058,-0.0453 -0.25683,-0.0641 -0.002,-0.004 -0.005,-0.008 -0.007,-0.0119 0.0611,-0.0415 0.12361,-0.0807 0.185,-0.12196 z m 2.63033,0.0718 c 0.0662,0.1315 0.13107,0.26328 0.19378,0.39636 -0.0148,0.0116 -0.0296,0.0235 -0.0444,0.0351 -0.01,-2.6e-4 -0.0192,2.6e-4 -0.0289,0 -0.0497,-0.002 -0.0986,-0.005 -0.14831,-0.008 0.0116,-0.14128 0.0221,-0.2822 0.0279,-0.42375 z m -5.14853,0.0274 c -0.002,0.008 -0.003,0.0155 -0.005,0.0233 -0.0257,0.0958 -0.0456,0.19304 -0.062,0.29094 -0.0773,-0.0132 -0.15425,-0.0276 -0.23151,-0.0419 v -0.017 c 0.099,-0.0857 0.19603,-0.17353 0.29869,-0.25529 z m -3.478338,0.0202 c 0.364066,0.1442 0.755584,0.21025 1.149284,0.24649 0.0024,0.10082 0.0075,0.20101 0.01654,0.30128 -0.02884,-0.005 -0.05771,-0.008 -0.08682,-0.0134 -0.255323,-0.0442 -0.503542,-0.11654 -0.759127,-0.16072 -0.108214,-0.0188 -0.218884,-0.0372 -0.327628,-0.061 0.0032,-0.1045 0.0043,-0.2084 0.0078,-0.31264 z m 10.340458,0.0134 c 0.0693,0.0318 0.13789,0.0662 0.20774,0.0966 0.007,0.003 0.0143,0.006 0.0217,0.009 -0.0683,0.0865 -0.13911,0.17142 -0.21187,0.25476 -0.0138,-2.6e-4 -0.0273,-7.9e-4 -0.0413,-0.001 -0.003,-0.005 -0.007,-0.0105 -0.0104,-0.0155 0.0145,-0.11457 0.0262,-0.22909 0.0341,-0.34365 z m -5.74797,0.003 v 5.3e-4 c 0.0783,0.014 0.15654,0.0302 0.23513,0.0429 0.14632,0.0238 0.29268,0.046 0.43873,0.0692 -0.0341,0.0262 -0.0677,0.0534 -0.10232,0.0785 -0.0979,0.0709 -0.19615,0.14149 -0.29404,0.21187 -0.0222,-0.002 -0.0444,-0.005 -0.0667,-0.007 -0.23151,-0.0167 -0.4638,-0.0251 -0.69557,-0.0357 0.15928,-0.12302 0.32069,-0.24298 0.48473,-0.36019 z m 3.82199,0.009 c -8e-4,0.0156 -10e-4,0.0309 -0.002,0.0465 -0.004,-0.0116 -0.008,-0.0227 -0.0114,-0.0341 0.004,-0.004 0.009,-0.008 0.0134,-0.0124 z m 0.78599,0.003 c 0.001,0.002 0.003,0.005 0.004,0.008 -0.002,0.002 -0.004,0.004 -0.006,0.005 z m -2.30321,0.0667 c 0.0151,0.046 0.0294,0.0922 0.0439,0.1385 -0.072,-0.007 -0.14327,-0.015 -0.21497,-0.0243 0.0566,-0.0389 0.1139,-0.0758 0.17105,-0.11421 z m 2.97449,0 c 0.0683,0.0902 0.13444,0.182 0.19689,0.27699 h -0.0269 c -0.0664,7.9e-4 -0.13229,0.003 -0.19844,0.004 0.0106,-0.0934 0.0186,-0.18773 0.0284,-0.28112 z m -6.89932,0.003 c -2.6e-4,0.0114 -1.5e-4,0.0233 -5.3e-4,0.0346 -0.002,0.002 -0.003,0.003 -0.005,0.004 -0.0233,0.0206 -0.0452,0.0442 -0.0682,0.0651 -0.0151,-0.003 -0.0299,-0.006 -0.045,-0.008 0.0397,-0.0318 0.0784,-0.0641 0.11834,-0.0956 z m 2.58486,0.0796 v 5.3e-4 c 0.0415,0.008 0.0825,0.0156 0.12402,0.0238 0.0132,0.0246 0.0284,0.048 0.0408,0.0729 0.0333,0.0656 0.0666,0.13152 0.10026,0.1974 -0.12409,-10e-4 -0.24824,2.4e-4 -0.37207,-0.005 -0.0897,-0.003 -0.17878,-0.0124 -0.2682,-0.0212 0.12489,-0.0894 0.24897,-0.18087 0.37517,-0.26871 z m 2.67477,0.0119 c 0.0175,0.0556 0.0355,0.11085 0.0532,0.16588 -0.0743,-0.006 -0.1489,-0.0125 -0.22325,-0.0196 0.018,-0.0145 0.0376,-0.0278 0.0553,-0.0429 0.0394,-0.0333 0.0758,-0.0692 0.11472,-0.10336 z m 2.53266,0.01 c 0.0656,0.0262 0.13075,0.0541 0.19637,0.0806 -0.041,0.0439 -0.0835,0.085 -0.12506,0.12816 -0.072,-0.008 -0.14455,-0.017 -0.21704,-0.0217 0.0505,-0.0609 0.0976,-0.12411 0.14573,-0.18655 z m -1.45676,0.0248 c 0.0257,0.0479 0.0539,0.0934 0.0786,0.14211 0.003,0.006 0.007,0.0123 0.01,0.0186 -0.0802,0.002 -0.16038,-7.9e-4 -0.24081,0 0.002,-0.0145 0.004,-0.0289 0.006,-0.0434 0.0447,-0.0357 0.0907,-0.0707 0.13487,-0.10697 0.004,-0.003 0.008,-0.007 0.0114,-0.0103 z m -3.3631,0.0372 c 0.0534,0.0135 0.10753,0.0255 0.16071,0.0408 0.0254,0.007 0.0519,0.0115 0.0775,0.0181 0.004,0.008 0.007,0.0164 0.0114,0.0243 -0.0519,0.0368 -0.10318,0.0735 -0.15451,0.11058 -0.0312,-0.0648 -0.0633,-0.12923 -0.0951,-0.19378 z m -4.589385,0.002 c 0.125413,0.01 0.250325,0.0177 0.373621,0.0248 0.01349,7.9e-4 0.02682,0.002 0.04031,0.003 2.64e-4,0.11721 5.29e-4,0.23445 0.0011,0.3514 -0.131498,-0.0185 -0.262541,-0.0403 -0.393774,-0.061 -0.01164,-0.10504 -0.01828,-0.21119 -0.02119,-0.31781 z m 0.623219,0.0413 c 0.108214,0.008 0.216071,0.0166 0.323492,0.0269 0,0.0185 -2.62e-4,0.0373 0,0.0558 -0.109005,0.0918 -0.214812,0.18742 -0.32091,0.28267 h -0.0021 v -0.27915 c 0,-0.0288 -5.29e-4,-0.0575 -5.29e-4,-0.0863 z m 9.187556,0.0579 c 0.0492,0.0201 0.0986,0.0399 0.14831,0.0589 0.004,0.0132 0.006,0.0271 0.01,0.0403 -0.01,0.0103 -0.0202,0.0204 -0.03,0.031 -0.0151,-0.004 -0.0309,-0.008 -0.0455,-0.0119 -0.054,-0.0138 -0.10905,-0.0225 -0.16382,-0.0331 0.027,-0.0286 0.0544,-0.0564 0.0811,-0.0853 z m -8.52661,0.008 c 0.0235,0.003 0.0472,0.008 0.0708,0.0114 -0.0685,0.0661 -0.13823,0.12991 -0.204636,0.19844 7.94e-4,-0.0251 0.0031,-0.0499 0.0031,-0.0755 0,-0.009 5.3e-4,-0.0175 5.3e-4,-0.0263 0.04286,-0.0362 0.0871,-0.072 0.130226,-0.108 z m 3.83594,0.0129 v 5.3e-4 c 0.17701,0.0302 0.35649,0.0505 0.53588,0.0661 0.005,0.0159 0.0107,0.0314 0.016,0.047 -0.0775,-0.004 -0.15451,-0.01 -0.23203,-0.0129 -0.10081,-0.004 -0.2015,-0.003 -0.30231,-0.004 -0.0132,-0.027 -0.0265,-0.0539 -0.0403,-0.0806 0.007,-0.005 0.0151,-0.0107 0.0227,-0.016 z m -3.51297,0.0408 c 0.002,5.3e-4 0.004,0.002 0.007,0.003 0,0.10054 10e-4,0.20175 10e-4,0.30282 0,0.0228 -0.002,0.0452 -0.003,0.0677 -0.1106,-0.0138 -0.22092,-0.0271 -0.33125,-0.0408 0.10689,-0.11191 0.21416,-0.22357 0.32608,-0.33072 z m 0.21808,0.0413 c 0.0675,0.0132 0.1351,0.0255 0.20257,0.0382 -0.0103,0.0844 -0.02,0.16907 -0.0279,0.25374 -0.0281,0.0262 -0.0567,0.0513 -0.0847,0.0775 -0.031,-0.004 -0.062,-0.008 -0.093,-0.0124 0.003,-0.11905 0.003,-0.23775 0.003,-0.35708 z m 4.05195,0.003 c 0.0444,0.003 0.0889,0.007 0.1328,0.0108 0.0405,0.003 0.081,0.007 0.12144,0.0108 -0.0145,0.01 -0.0289,0.0195 -0.0434,0.0289 -0.0656,-0.004 -0.13127,-0.006 -0.19688,-0.0103 -0.005,-0.0132 -0.009,-0.0271 -0.0139,-0.0403 z m 4.33616,0.0372 c 0.0487,0.0132 0.0948,0.0299 0.13126,0.0558 2.6e-4,0.023 8e-4,0.0462 5.3e-4,0.0692 -0.0434,-0.0209 -0.0881,-0.0386 -0.13384,-0.0553 l -0.0103,-0.0563 c 0.004,-0.004 0.008,-0.009 0.0124,-0.0134 z m -11.579133,0.016 c 0.188119,0.04 0.379817,0.0675 0.567407,0.108 0.207963,0.0447 0.411829,0.0979 0.622702,0.13126 0.0032,5.3e-4 0.0061,0.002 0.0093,0.003 0.01482,0.12144 0.03109,0.24308 0.04961,0.3669 0.0069,0.046 0.01021,0.0914 0.01551,0.13746 -0.06059,-0.0127 -0.121315,-0.0237 -0.181902,-0.0382 -0.366715,-0.0871 -0.727704,-0.1976 -1.087273,-0.31058 v -0.004 c -0.0029,-0.13097 0.0021,-0.26205 0.0047,-0.39274 z m 7.817613,0.006 c 0.004,0.008 0.007,0.0171 0.0108,0.0253 l -0.0424,-0.004 c 0.0103,-0.007 0.0212,-0.0138 0.0315,-0.0212 z m -4.2168,0.0129 c 0.003,5.3e-4 0.006,8e-4 0.009,0.001 l -0.0103,0.009 c 2.6e-4,-0.003 0.001,-0.007 0.002,-0.01 z m 4.44883,0.003 c 0.10504,0.0101 0.21044,0.0197 0.31574,0.0279 0.005,0.0151 0.009,0.0299 0.0145,0.045 v 10e-4 c -0.091,-0.0143 -0.18232,-0.0271 -0.27492,-0.0377 -0.0138,-0.002 -0.0276,-0.002 -0.0413,-0.004 -0.005,-0.0104 -0.009,-0.0213 -0.0139,-0.032 z m -4.17288,0.0289 c 0.11536,0.008 0.23086,0.0125 0.34675,0.0176 0.12832,0.006 0.25641,0.0145 0.38448,0.0243 -0.15531,0.10953 -0.311,0.21822 -0.46974,0.32247 -0.008,0.006 -0.0164,0.0119 -0.0248,0.0176 -0.12593,-0.0201 -0.2518,-0.0412 -0.37827,-0.0589 -0.0561,-0.008 -0.11289,-0.0146 -0.16898,-0.0222 7.9e-4,-0.008 0.002,-0.0164 0.003,-0.0248 0.10081,-0.0942 0.20349,-0.18626 0.30799,-0.27595 z m 6.19446,0.008 v 5.3e-4 c -0.009,0.0474 -0.0171,0.0955 -0.0269,0.14263 -0.014,0.0143 -0.0271,0.0289 -0.0413,0.0429 -0.0344,0.0341 -0.0715,0.0661 -0.10645,0.10025 -0.0296,-0.0566 -0.0595,-0.11288 -0.0889,-0.16949 0.006,-0.0373 0.0107,-0.0748 0.0165,-0.11214 0.0593,-0.001 0.1185,-0.003 0.17777,-0.004 0.023,-5.3e-4 0.046,-1.5e-4 0.0692,-5.3e-4 z m 0.39842,0.007 c 0.0638,0.003 0.12719,0.007 0.19069,0.0124 -0.0368,0.0365 -0.0728,0.0738 -0.11007,0.10955 -0.027,-0.0408 -0.0534,-0.0815 -0.0806,-0.12195 z m -0.95601,0.004 v 5.3e-4 c 0.027,0.0524 0.0539,0.1047 0.0811,0.15709 -0.003,0.0214 -0.005,0.0432 -0.009,0.0646 -0.004,0.027 -0.011,0.0542 -0.016,0.0811 -0.0778,-0.0209 -0.15526,-0.0421 -0.23358,-0.0641 -0.0249,-0.007 -0.0495,-0.0128 -0.0744,-0.0196 l -0.0987,-0.21704 c 0.11693,-8e-4 0.23394,2.6e-4 0.35088,-0.003 z m -0.65629,5.3e-4 c 0.0246,5.3e-4 0.0493,7.9e-4 0.0739,0.001 -0.006,0.0434 -0.0123,0.0868 -0.0186,0.13023 -0.0571,-0.0135 -0.11415,-0.0271 -0.17156,-0.0393 0.0389,-0.0302 0.0774,-0.061 0.11627,-0.0915 z m 2.06602,0.0372 c 0.0452,0.007 0.0907,0.0122 0.13591,0.0207 0.0249,0.005 0.0526,0.0107 0.0801,0.016 -0.12224,0.13282 -0.24541,0.2641 -0.36897,0.39533 -0.0349,-0.0593 -0.0699,-0.11878 -0.10697,-0.17725 0.0873,-0.0836 0.17553,-0.16773 0.25993,-0.25425 z m -5.99705,0.0109 c 0.21431,0.0175 0.42879,0.0337 0.64337,0.0403 0.0593,0.002 0.1185,10e-4 0.17777,0.002 -0.11827,0.0897 -0.23655,0.17864 -0.35243,0.27389 -0.0693,0.0569 -0.14121,0.11089 -0.21291,0.16433 -0.0437,-0.006 -0.0876,-0.0118 -0.13126,-0.0181 -0.21035,-0.0304 -0.42012,-0.0653 -0.62994,-0.0997 0.0897,-0.0622 0.17882,-0.12533 0.26666,-0.19121 0.0783,-0.0587 0.15989,-0.11362 0.23874,-0.17156 z m -2.617926,0.0243 c -5.3e-4,0.016 -7.94e-4,0.0323 -0.0016,0.0486 -0.01561,-0.002 -0.03142,-0.004 -0.04702,-0.006 0.01614,-0.0143 0.03218,-0.0286 0.04857,-0.0429 z m 3.853506,0.0207 c 0.0696,0 0.1392,0.003 0.20878,0.003 0.0463,0.10689 0.0885,0.21569 0.1266,0.32814 0.009,0.0265 0.0212,0.0516 0.0315,0.0775 -0.0437,0.0251 -0.0891,0.047 -0.13333,0.0713 -0.0408,-0.0923 -0.0849,-0.18363 -0.13229,-0.27543 -0.0349,-0.0675 -0.0679,-0.13611 -0.10129,-0.20464 z m 0.43822,0.007 c 0.10504,0.002 0.20967,0.001 0.31471,0.005 0.0654,0.003 0.13102,0.008 0.19637,0.0114 l 0.003,0.009 c 0.002,0.006 0.005,0.0117 0.008,0.0176 -0.13865,0.0884 -0.27707,0.17323 -0.41651,0.25684 -0.0354,-0.0995 -0.0673,-0.20078 -0.10491,-0.29921 z m 4.7718,0.0269 c 0.008,0.002 0.0152,0.004 0.0233,0.006 0.002,0.009 0.005,0.0169 0.006,0.0253 0.0352,0.20319 0.0695,0.40509 0.11472,0.60565 -0.18441,-0.0794 -0.37091,-0.14261 -0.56379,-0.18811 0.14023,-0.14923 0.27966,-0.29904 0.41962,-0.44907 z m -1.05265,0.0176 c 0.0254,0.0381 0.0511,0.0761 0.076,0.1142 -0.0656,0.0609 -0.13123,0.12212 -0.19896,0.18139 0.0159,-0.0704 0.0304,-0.14071 0.0444,-0.21136 0.0267,-0.0275 0.052,-0.0562 0.0785,-0.0842 z m -2.64531,0.0108 c 0.0823,0.007 0.16396,0.0151 0.24598,0.0233 0.032,0.0736 0.0639,0.1471 0.094,0.22117 -0.13177,0.10478 -0.26383,0.21042 -0.39533,0.31678 -0.0191,-0.0587 -0.039,-0.11727 -0.0625,-0.17415 0.0389,-0.12923 0.0787,-0.2581 0.11783,-0.38705 z m -1.69912,0.008 c 0.0839,0.16774 0.16488,0.3368 0.24029,0.50746 l -0.009,0.005 c -0.24288,-0.0431 -0.48877,-0.0765 -0.73484,-0.10801 0.16722,-0.13545 0.33267,-0.27287 0.50333,-0.4041 z m 1.46812,0.0212 c -0.008,0.0259 -0.0158,0.0516 -0.0233,0.0775 l -0.0243,-0.0465 c 0.0159,-0.0103 0.0317,-0.021 0.0475,-0.031 z m -6.031671,0.015 c 0.123299,0.0167 0.246444,0.0343 0.370004,0.0496 v 0.0212 c -0.108743,0.10292 -0.213309,0.20959 -0.317293,0.31781 -0.01667,-0.12991 -0.03498,-0.25923 -0.05271,-0.38861 z m 6.745841,0.003 c 0.0169,0.002 0.0337,0.003 0.0506,0.005 0.0143,0.002 0.0286,0.005 0.0429,0.007 -0.022,0.0175 -0.0444,0.0345 -0.0667,0.0517 -0.009,-0.0212 -0.0179,-0.0424 -0.0269,-0.0636 z m 3.46232,0.0171 c 0.0296,0.0145 0.0572,0.0314 0.0842,0.0486 -0.005,0.0955 -0.0124,0.19078 -0.0222,0.28577 -0.007,-0.0326 -0.0161,-0.0649 -0.0222,-0.0977 -0.0143,-0.0789 -0.0271,-0.15757 -0.0398,-0.23668 z m -9.550319,0.0677 c 0.05265,0.007 0.105225,0.0134 0.157615,0.0202 -0.0344,0.0389 -0.07182,0.0763 -0.105421,0.11575 -0.04418,0.0516 -0.08785,0.10116 -0.131776,0.1509 v -0.0884 -0.12712 c 0.02593,-0.0243 0.05339,-0.0472 0.07958,-0.0713 z m 6.618719,0.005 c 0.0646,0.014 0.12925,0.0275 0.19327,0.0434 -0.018,0.11007 -0.0372,0.21964 -0.0584,0.32918 -0.0476,-0.12277 -0.0928,-0.24638 -0.13487,-0.37259 z m -1.47536,0.0408 c 0.04,0.0733 0.0813,0.14632 0.11989,0.22014 -0.031,0.10742 -0.0638,0.21377 -0.0966,0.32039 -0.11907,-0.022 -0.23828,-0.0426 -0.35708,-0.0661 -0.0286,-0.072 -0.0599,-0.14254 -0.0935,-0.21239 0.10716,-0.0632 0.2151,-0.12448 0.31988,-0.19327 0.0354,-0.0233 0.0718,-0.0457 0.10749,-0.0687 z m -4.717028,0.0103 c 0.158748,0.0206 0.316938,0.0409 0.475428,0.062 -0.002,0.0434 -0.004,0.0874 -0.006,0.13075 -0.136,0.12515 -0.27117,0.25085 -0.409284,0.37362 -0.02725,-0.005 -0.05464,-0.0113 -0.08216,-0.0165 v -0.003 c 0,-0.12304 -0.0019,-0.2457 0.0072,-0.36846 0.0045,-0.0599 0.0097,-0.11918 0.01498,-0.17828 z m 6.583578,0.0439 c 0.0145,0.004 0.0294,0.007 0.0439,0.0114 0.0627,0.13521 0.12731,0.26975 0.19689,0.40205 -0.11482,0.0976 -0.23027,0.19418 -0.34881,0.28732 -0.005,-0.019 -0.0125,-0.0379 -0.0181,-0.0568 0.0497,-0.21272 0.0906,-0.42719 0.12609,-0.64388 z m -0.75138,0.0284 c -0.008,0.0495 -0.0161,0.0988 -0.0253,0.14831 -0.0127,-0.0328 -0.0245,-0.0662 -0.0377,-0.0987 0.0103,-0.008 0.0204,-0.0166 0.0305,-0.0248 z m 2.18023,0.0238 c 0.014,0.0228 0.0273,0.0455 0.0413,0.0682 -0.0333,-0.004 -0.0661,-0.0105 -0.0992,-0.015 0.0196,-0.0175 0.0383,-0.0355 0.0579,-0.0532 z m -1.98282,0.0258 c 0.0632,0.19235 0.14932,0.37328 0.21652,0.5643 5.3e-4,10e-4 8e-4,0.003 10e-4,0.004 -0.004,0.0164 -0.009,0.0327 -0.0129,0.0491 -0.081,-0.008 -0.16219,-0.0167 -0.24288,-0.0258 -0.0159,-0.046 -0.0329,-0.0924 -0.0496,-0.1385 0.0167,-0.0677 0.0335,-0.13481 0.0475,-0.2036 0.0169,-0.0823 0.0263,-0.166 0.0403,-0.24908 z m 0.85318,0.003 c 0.0339,0.01 0.0679,0.0189 0.1018,0.0284 0.0156,0.004 0.0309,0.008 0.0465,0.0124 -0.0124,0.0503 -0.0272,0.10063 -0.0413,0.1509 -0.002,0.002 -0.004,0.003 -0.006,0.005 -0.0352,-0.0643 -0.068,-0.13101 -0.10077,-0.19689 z m -6.0415,0.009 c -0.005,0.0529 -0.009,0.106 -0.015,0.15864 -0.0135,0.12251 -0.0169,0.24242 -0.0145,0.36122 -0.022,0.0183 -0.0434,0.036 -0.0656,0.0543 -0.0325,-0.007 -0.0651,-0.0145 -0.0977,-0.0217 0.006,-0.13309 0.0174,-0.26589 0.0269,-0.39739 0.0553,-0.0516 0.11085,-0.1029 0.16588,-0.15503 z m 0.20723,0.009 c 0.11006,0.0159 0.21989,0.0335 0.32969,0.0496 -0.12383,0.0945 -0.24396,0.19327 -0.36328,0.29301 0.008,-0.11429 0.0212,-0.22858 0.0336,-0.34262 z m -3.535705,0.0625 c 0.320411,0.0995 0.641417,0.1968 0.967383,0.2775 0.07197,0.018 0.144547,0.0322 0.217041,0.0475 -0.07858,0.0844 -0.157062,0.16883 -0.235644,0.2527 -0.158485,0.1696 -0.300505,0.34926 -0.432533,0.54002 -0.05106,0.0735 -0.09373,0.1453 -0.129706,0.21859 -0.07329,-0.10874 -0.141335,-0.22089 -0.185518,-0.34313 -0.114036,-0.31565 -0.176681,-0.65614 -0.201023,-0.99322 z m 1.771986,0.0165 c -0.0011,0.0696 -4.5e-5,0.13894 0.0031,0.20826 -0.06006,-0.01 -0.120039,-0.0207 -0.179832,-0.031 0.05794,-0.0601 0.117729,-0.11852 0.176734,-0.17726 z m 0.495576,0.006 c -0.0071,0.0945 -0.01262,0.18848 -0.01394,0.28267 -0.07117,-0.0124 -0.142251,-0.0248 -0.213423,-0.0367 0.03334,-0.0344 0.06903,-0.0668 0.10025,-0.10336 0.04127,-0.0487 0.08532,-0.0947 0.127124,-0.14262 z m 1.900663,0.009 c 0.11563,0.018 0.2319,0.0326 0.34726,0.0517 0.14129,0.0233 0.28349,0.0434 0.42478,0.0656 -0.20399,0.14235 -0.41101,0.28 -0.61288,0.42685 -0.0609,0.0442 -0.12359,0.0869 -0.18604,0.12919 -0.14102,-0.0318 -0.28169,-0.0633 -0.42271,-0.0951 -0.0717,-0.0161 -0.14379,-0.0317 -0.21549,-0.0475 -2.6e-4,-0.005 -7.9e-4,-0.0113 -0.001,-0.0165 0.0566,-0.0471 0.11496,-0.0919 0.17105,-0.14004 0.15848,-0.13599 0.32573,-0.25666 0.49506,-0.37414 z m 3.92017,0.0191 c 0.0431,0.11139 0.0825,0.22449 0.12299,0.33693 -0.007,0.0283 -0.014,0.0564 -0.0217,0.0847 -0.16907,-0.0214 -0.33814,-0.0433 -0.50746,-0.0687 -0.002,-0.008 -0.004,-0.0157 -0.006,-0.0233 0.13732,-0.11034 0.27506,-0.21962 0.41238,-0.32969 z m 1.74408,0.0165 0.0553,0.10077 c -0.0833,0.0802 -0.16528,0.16186 -0.24597,0.24494 -0.01,-0.0161 -0.0195,-0.0324 -0.0289,-0.0486 0.0132,-0.0458 0.0262,-0.0914 0.0388,-0.13746 0.0606,-0.0529 0.12134,-0.10544 0.18087,-0.15968 z m 0.41393,0.0584 h 5.3e-4 c 0.0923,0.0156 0.18562,0.0295 0.28008,0.0398 -0.0844,0.0873 -0.168,0.17498 -0.25425,0.26097 -0.002,-0.003 -0.005,-0.006 -0.007,-0.01 -0.0394,-0.0667 -0.0743,-0.13563 -0.11214,-0.20309 0.0312,-0.0291 0.061,-0.0593 0.093,-0.0879 z m -3.64474,0.0259 c 0.009,0.0193 0.0161,0.0393 0.0248,0.0584 -0.032,-0.006 -0.0636,-0.013 -0.0956,-0.0196 0.0235,-0.0127 0.0473,-0.0256 0.0708,-0.0388 z m -1.36477,0.0434 c 0.19526,0.0299 0.38998,0.062 0.58549,0.0909 0.0143,0.002 0.0284,0.005 0.0424,0.007 -0.31009,0.14473 -0.62329,0.28344 -0.92862,0.43769 -0.0619,0.0312 -0.12259,0.0646 -0.18345,0.0977 -0.10927,-0.0201 -0.21941,-0.038 -0.32815,-0.061 0.22727,-0.15769 0.45566,-0.31513 0.68161,-0.47388 0.0447,-0.0315 0.0874,-0.0654 0.13075,-0.0982 z m 5.68905,0.0429 c 0.21987,0.054 0.43091,0.13093 0.64337,0.23306 0.008,0.0294 0.0156,0.059 0.0233,0.0884 -0.0236,0.127 -0.0507,0.25335 -0.0796,0.3793 -0.0164,-0.0156 -0.0383,-0.0269 -0.0677,-0.0269 -0.0458,0 -0.093,-0.0116 -0.14004,-0.0248 -0.0699,-0.11059 -0.14983,-0.21519 -0.21756,-0.32711 -0.0624,-0.10292 -0.11173,-0.21268 -0.16174,-0.32195 z m -0.21032,0.0289 h 5.3e-4 c 0.0945,0.18812 0.17644,0.38009 0.29921,0.55604 l 0.009,0.015 c -0.0341,-0.003 -0.0684,-0.005 -0.10232,-0.01 -0.14208,-0.0185 -0.28323,-0.0342 -0.42478,-0.0512 -0.0376,-0.0564 -0.0746,-0.11313 -0.11162,-0.17002 0.11245,-0.11165 0.22094,-0.22599 0.33021,-0.34003 z m -7.77782,0.0202 c -0.003,0.0505 -0.004,0.10088 -0.006,0.15141 -0.0447,-0.009 -0.0891,-0.0181 -0.13384,-0.0274 0.0468,-0.0413 0.0935,-0.0822 0.14004,-0.12402 z m 3.27525,0.0646 v 5.2e-4 c 0.0312,0.006 0.0628,0.0106 0.0941,0.016 0.0804,0.21458 0.13509,0.43733 0.18139,0.66249 -0.006,0.004 -0.0122,0.008 -0.0186,0.0124 -0.0209,-0.002 -0.0419,-0.005 -0.0631,-0.007 -0.43947,-0.0394 -0.87886,-0.0843 -1.31568,-0.1478 0.3048,-0.15399 0.617,-0.29298 0.92605,-0.43718 0.0667,-0.0312 0.13024,-0.0669 0.19585,-0.0992 z m -4.724773,0.0329 c 0.03175,0.006 0.06333,0.0117 0.09509,0.0171 -0.03043,0.0254 -0.06105,0.0508 -0.09095,0.0765 -7.93e-4,-0.0312 -0.0026,-0.0623 -0.0041,-0.0935 z m 5.044133,0.0222 c 0.0627,0.0116 0.12567,0.0238 0.18811,0.0357 0.04,0.11272 0.0737,0.2275 0.10387,0.34313 -0.0519,0.0391 -0.1029,0.0789 -0.15503,0.11731 -0.036,-0.17145 -0.0827,-0.3355 -0.13695,-0.4961 z m 3.51142,0.0408 c 0.0251,0.0439 0.0506,0.0879 0.076,0.13177 -0.0413,0.0413 -0.0827,0.0822 -0.12402,0.12351 -0.01,-0.002 -0.0202,-0.004 -0.0305,-0.005 0.027,-0.0831 0.0537,-0.16624 0.0785,-0.25011 z m -0.67748,0.0202 c -0.0153,0.0453 -0.0293,0.0907 -0.045,0.13539 -0.0349,-0.004 -0.07,-0.009 -0.1049,-0.0129 0.0503,-0.0402 0.10011,-0.0815 0.14986,-0.12247 z m -7.334955,0.006 c 0.0762,0.0127 0.152474,0.0253 0.228412,0.0388 0.0021,0.0304 0.0043,0.0604 0.0078,0.0909 -0.05212,0.0444 -0.103939,0.0894 -0.156062,0.13384 -0.02117,-0.0722 -0.04231,-0.1451 -0.06718,-0.21601 -0.0056,-0.0159 -0.0081,-0.0317 -0.01291,-0.0475 z m -0.218072,0.008 c 0.03572,0.13812 0.07943,0.27352 0.118853,0.41083 -0.11271,0.0984 -0.223054,0.20011 -0.330211,0.30541 -0.02143,-0.091 -0.04184,-0.18236 -0.0646,-0.27285 -0.01508,-0.0595 -0.02363,-0.11977 -0.02997,-0.18036 0.102127,-0.0878 0.204589,-0.17492 0.305925,-0.26303 z m 5.139217,0.002 c 0.0611,0.0114 0.12207,0.0227 0.18345,0.0341 0.01,0.002 0.0192,0.003 0.0289,0.005 -0.0534,0.0423 -0.10803,0.0833 -0.16174,0.12505 -0.0159,-0.055 -0.0328,-0.10957 -0.0507,-0.16381 z m -5.667352,0.0341 c 0.0013,0.0389 0.0046,0.0776 0.0052,0.11678 0,0.007 0.0013,0.0135 0.0016,0.0207 -0.01879,0.0175 -0.03832,0.034 -0.05684,0.0517 -0.200555,0.19155 -0.383615,0.40084 -0.541571,0.6289 -0.0508,0.0733 -0.09995,0.15159 -0.145727,0.23203 -0.005,-0.008 -0.01021,-0.0164 -0.0155,-0.0243 l -0.0057,-0.008 c 0.03122,-0.11483 0.09518,-0.21149 0.168465,-0.31626 0.123032,-0.17595 0.254455,-0.34021 0.399976,-0.49816 0.06297,-0.0683 0.126934,-0.1356 0.19017,-0.2036 z m 6.152082,0.0491 c 0.0275,0.004 0.0552,0.009 0.0827,0.0139 0.01,0.0405 0.0198,0.081 0.0295,0.11989 0.0392,0.15479 0.0799,0.30903 0.1199,0.46354 -0.17013,-0.0198 -0.3407,-0.0347 -0.51108,-0.0527 0.0376,-0.0825 0.0752,-0.16519 0.108,-0.25012 0.0283,-0.0728 0.0529,-0.14684 0.078,-0.22066 0.0312,-0.0243 0.0621,-0.0496 0.093,-0.0739 z m 2.33629,0.008 c -0.004,0.0118 -0.007,0.0234 -0.0109,0.0351 -0.003,-0.005 -0.006,-0.0102 -0.009,-0.0155 0.007,-0.007 0.0136,-0.0129 0.0202,-0.0196 z m -7.17062,0.007 c 0.10927,0.0222 0.21862,0.0426 0.32763,0.0667 5.2e-4,0.0307 0.003,0.061 0.004,0.0915 -0.11853,0.0945 -0.23573,0.19025 -0.35346,0.28577 -0.03545,-0.11351 -0.06913,-0.22753 -0.09664,-0.34209 0.03942,-0.0341 0.07918,-0.0679 0.11834,-0.10181 z m 5.13973,0.0351 c 0.12939,0.0188 0.25896,0.0353 0.38861,0.0517 -0.0521,0.16563 -0.11048,0.32932 -0.18138,0.48886 -0.006,0.0132 -0.0117,0.026 -0.0176,0.0393 -0.0124,-0.002 -0.0243,-0.003 -0.0367,-0.005 -0.0479,-0.19271 -0.0992,-0.3843 -0.15296,-0.57464 z m 0.58912,0.0987 c 0.0265,0.0762 0.0531,0.15221 0.0796,0.22841 -0.0706,0.0492 -0.14199,0.0971 -0.21342,0.1447 0.0487,-0.12329 0.0939,-0.24744 0.13384,-0.37311 z m 0.22117,0.006 0.11369,0.0134 c -0.003,0.0106 -0.006,0.0217 -0.009,0.0326 -0.0236,0.0177 -0.0467,0.0363 -0.0708,0.0537 -0.0111,-0.0333 -0.0227,-0.0664 -0.0341,-0.0997 z m -5.27461,0.005 0.0424,0.0104 c 0.0206,0.15796 0.0567,0.31489 0.10594,0.47232 -0.0275,0.0225 -0.0565,0.0431 -0.0832,0.0667 -0.0471,0.0413 -0.0955,0.0802 -0.14366,0.11989 -2.6e-4,-0.0196 7.9e-4,-0.0393 0,-0.0589 -0.007,-0.16801 -0.0363,-0.3343 -0.0537,-0.50178 0.0444,-0.0355 0.0878,-0.0725 0.13229,-0.108 z m 5.74538,0.0517 c 0.0749,0.009 0.14941,0.0198 0.22428,0.0294 -5.3e-4,0.002 -0.002,0.004 -0.002,0.005 -0.027,0.027 -0.0531,0.0547 -0.0806,0.0811 -0.0299,0.0288 -0.0628,0.0549 -0.093,0.0832 -0.0103,-0.0423 -0.0215,-0.085 -0.0315,-0.12764 -0.006,-0.0238 -0.0115,-0.0472 -0.017,-0.0713 z m -5.49734,0.005 c 0.12356,0.0283 0.24773,0.0549 0.37156,0.0827 -0.1024,0.0683 -0.20387,0.13758 -0.30283,0.20981 -0.0309,-0.0942 -0.0539,-0.19274 -0.0687,-0.29249 z m -1.214907,0.0506 c 0.005,0.0188 0.0092,0.0378 0.01498,0.0568 0.02831,0.0913 0.05796,0.18235 0.08733,0.27337 -0.05636,0.0468 -0.113427,0.0922 -0.168982,0.14005 -0.0217,-0.11668 -0.04662,-0.2327 -0.07493,-0.34779 0.0471,-0.041 0.09423,-0.0815 0.141594,-0.12247 z m 7.198007,0.008 c 0.054,0.007 0.1083,0.0138 0.16227,0.0217 0.003,0.004 0.005,0.009 0.008,0.0134 -0.0236,0.0698 -0.0508,0.13791 -0.076,0.20722 -0.10161,0.0979 -0.20324,0.19594 -0.30696,0.29146 -0.0138,-0.002 -0.0273,-0.004 -0.0408,-0.006 0.0609,-0.14711 0.11862,-0.29595 0.17312,-0.44597 0.0269,-0.0271 0.0537,-0.0544 0.0806,-0.0816 z m -0.66352,0.0331 v 5.3e-4 c 0.0199,0.0841 0.0393,0.16803 0.0568,0.2527 -0.0558,0.0497 -0.11002,0.10171 -0.16691,0.14986 -0.005,-0.0159 -0.01,-0.0322 -0.0145,-0.0481 0.0431,-0.11509 0.0806,-0.2311 0.11576,-0.34778 0.003,-0.002 0.006,-0.005 0.009,-0.007 z m -7.520992,0.0393 c 0.02143,0.10583 0.04853,0.2107 0.07235,0.31575 0.01085,0.0468 0.0258,0.0922 0.03824,0.13849 -0.106362,0.11113 -0.212592,0.22234 -0.314192,0.33796 -0.09578,0.10901 -0.197128,0.21201 -0.297141,0.31626 -0.04524,-0.0881 -0.09437,-0.17451 -0.146759,-0.25838 0.0418,-0.0841 0.0937,-0.16406 0.141592,-0.24185 0.118007,-0.19235 0.266383,-0.36437 0.421164,-0.52761 0.02699,-0.0283 0.05697,-0.0536 0.08475,-0.0806 z m 8.736932,0.0114 c 0.10186,0.0169 0.20381,0.0299 0.30593,0.0444 0.10504,0.15187 0.2161,0.29912 0.31161,0.45734 0.0519,0.0857 0.0947,0.17513 0.13539,0.26562 -0.16272,-0.0426 -0.3207,-0.10162 -0.48421,-0.14263 -0.014,-0.003 -0.0281,-0.006 -0.0424,-0.009 -0.0931,-0.18442 -0.1916,-0.36631 -0.29611,-0.54622 0.0233,-0.023 0.0465,-0.046 0.0698,-0.0692 z m -5.87561,0.004 c 0.0934,0.0198 0.18797,0.037 0.28164,0.0553 -0.25639,0.14923 -0.50851,0.30665 -0.76119,0.46302 -0.0138,-0.0537 -0.0275,-0.10701 -0.0429,-0.1602 0.12964,-0.0947 0.26506,-0.18106 0.39894,-0.27181 0.0415,-0.028 0.082,-0.058 0.1235,-0.0863 z m 7.48688,0.045 c 8e-4,0.008 0.001,0.0158 0.002,0.0238 -0.003,10e-4 -0.005,0.004 -0.008,0.006 0.002,-0.01 0.004,-0.0197 0.006,-0.0295 z m -8.71988,0.0145 c 0.0201,0.1651 0.0424,0.32887 0.0413,0.49661 -2.5e-4,0.0259 -1.4e-4,0.0513 -5.2e-4,0.077 -0.0654,0.0521 -0.13026,0.1047 -0.19534,0.15709 -0.05,-0.16034 -0.10166,-0.32073 -0.15193,-0.48265 0.0164,-0.0135 0.0317,-0.0284 0.0481,-0.0419 0.0855,-0.0696 0.17213,-0.1374 0.25838,-0.20619 z m 3.92586,0.009 c 0.007,0.0291 0.0153,0.0577 0.0222,0.0868 -0.0407,-0.004 -0.0817,-0.008 -0.12248,-0.0124 0.0333,-0.0249 0.0669,-0.0496 0.10026,-0.0744 z m 3.776,0.0109 c 0.0108,0.001 0.0217,0.002 0.0326,0.004 -0.002,0 -0.005,5.3e-4 -0.007,5.3e-4 -0.008,2.6e-4 -0.013,0.003 -0.0196,0.005 l -0.006,-0.009 z m 0.35502,0.0351 c 0.022,0.001 0.0442,0.004 0.0661,0.005 0.0272,7.9e-4 0.0539,0.005 0.0806,0.0104 0.0161,0.0318 0.0326,0.0638 0.0475,0.0961 -0.0606,-0.0455 -0.12524,-0.0844 -0.1943,-0.11162 z m -6.21926,0.001 c 0.0495,0.008 0.0988,0.0195 0.14831,0.0274 0.41884,0.0659 0.83967,0.11044 1.26142,0.14986 -0.0389,0.0254 -0.0758,0.0537 -0.11524,0.0786 -0.16827,0.1053 -0.35524,0.16668 -0.53278,0.25373 -0.18679,0.0915 -0.36308,0.20706 -0.54829,0.30231 -0.32544,0.16746 -0.66752,0.29812 -0.99322,0.4656 -0.063,-0.20161 -0.1573,-0.39478 -0.22583,-0.5948 -0.008,-0.0236 -0.0145,-0.048 -0.0217,-0.0718 0.345,-0.1995 0.68019,-0.41502 1.02732,-0.61081 z m 6.68124,0.0661 c -0.007,0.0265 -0.0132,0.0526 -0.0202,0.0791 -0.01,-0.0246 -0.0186,-0.0496 -0.0289,-0.0739 h 0.0222 c 0.0103,0 0.0184,-0.003 0.0269,-0.005 z m -9.483657,0.0119 c 0.02328,0.118 0.04452,0.23698 0.06356,0.35657 -0.09524,0.0873 -0.191892,0.17331 -0.283705,0.26458 -0.02593,-0.073 -0.05239,-0.14607 -0.077,-0.2191 -0.01058,-0.0318 -0.01786,-0.065 -0.02739,-0.0972 0.10451,-0.1053 0.214733,-0.20488 0.324527,-0.30489 z m 7.851717,0.0207 c 0.0651,0.11192 0.12387,0.22728 0.18552,0.34158 -0.10822,-0.0201 -0.21629,-0.0379 -0.32505,-0.0537 0.0109,-0.0299 0.0212,-0.06 0.0326,-0.0894 0.0196,-0.0497 0.0383,-0.10011 0.0574,-0.15038 0.0164,-0.0161 0.0332,-0.0319 0.0496,-0.0481 z m -1.36167,0.002 c 0.008,0.0243 0.0164,0.0485 0.0243,0.0729 -0.007,0.0169 -0.0131,0.034 -0.0196,0.0506 -0.0516,-0.007 -0.10318,-0.0133 -0.15451,-0.0202 0.0503,-0.0341 0.10038,-0.0682 0.14986,-0.10335 z m 2.31148,0.0708 c 0.0579,-0.001 0.11498,0.002 0.17054,0.0284 0.0778,0.0365 0.14549,0.094 0.21032,0.14935 0.0624,0.0534 0.12339,0.11001 0.18345,0.16794 -0.0185,0.0675 -0.0365,0.13485 -0.0553,0.20206 -0.0796,-0.005 -0.15912,-0.0145 -0.23823,-0.0253 -0.0389,-0.0958 -0.08,-0.19086 -0.12919,-0.28267 -0.0439,-0.0818 -0.0924,-0.16094 -0.1416,-0.23978 z m -4.26589,0.0362 c 0.003,2.7e-4 0.007,5.3e-4 0.0104,0.001 0.0167,0.0847 0.0332,0.16934 0.0512,0.25322 0.0222,0.10345 0.0444,0.20712 0.0667,0.31057 -0.0376,0.10133 -0.0781,0.20127 -0.12041,0.30076 -0.23813,0.14499 -0.47839,0.28767 -0.72657,0.41599 -0.39079,0.20241 -0.79743,0.37162 -1.19165,0.56741 -0.0696,0.0347 -0.13768,0.072 -0.20568,0.10904 -0.0661,-0.10028 -0.13192,-0.20053 -0.20257,-0.29869 -0.0836,-0.11616 -0.11403,-0.25157 -0.14366,-0.38758 0.004,-0.002 0.008,-0.004 0.0124,-0.006 0.381,-0.20108 0.78743,-0.34846 1.16737,-0.55087 0.16881,-0.09 0.33052,-0.19607 0.50488,-0.27543 0.1987,-0.0905 0.38612,-0.17184 0.56947,-0.29249 0.0704,-0.0463 0.13868,-0.0981 0.20826,-0.14676 z m 0.22221,0.0191 c 0.0394,0.003 0.0789,0.007 0.11834,0.0109 -0.0265,0.0619 -0.0521,0.12411 -0.0775,0.18655 -0.014,-0.0656 -0.0273,-0.13151 -0.0408,-0.1974 z m 0.416,0.0393 c 0.13926,0.013 0.27854,0.0253 0.41755,0.0398 0.0468,0.005 0.0937,0.012 0.14055,0.0176 0.002,0.007 0.003,0.0151 0.005,0.0222 -0.15637,0.095 -0.3118,0.19107 -0.4687,0.28525 -0.0341,-0.12143 -0.0655,-0.24286 -0.0946,-0.36483 z m -4.679301,0.0687 c 0.05159,0.15927 0.09836,0.31948 0.146241,0.47955 -0.0677,0.0571 -0.134647,0.11511 -0.19947,0.1757 -0.01614,0.0151 -0.0309,0.0317 -0.04651,0.047 -0.0291,-0.12542 -0.05566,-0.25202 -0.07338,-0.38034 -0.0071,-0.0505 -0.01582,-0.10137 -0.02379,-0.15244 0.06429,-0.0577 0.131273,-0.11315 0.19689,-0.1695 z m 5.599661,0.0346 c 0.10557,0.0143 0.2112,0.0275 0.31677,0.0429 -0.0254,0.0529 -0.0513,0.1055 -0.0801,0.1571 -0.0465,0.0357 -0.0917,0.0741 -0.13901,0.10955 -0.0476,0.0357 -0.0973,0.069 -0.14521,0.10387 -0.007,-0.0386 -0.012,-0.0779 -0.0196,-0.11627 -0.008,-0.0408 -0.0197,-0.0817 -0.0284,-0.12247 0.0225,-0.0524 0.0452,-0.10497 0.0677,-0.15762 0.009,-0.006 0.0187,-0.0114 0.0279,-0.017 z m -4.59352,0.007 c 0.0127,0.046 0.0248,0.0922 0.0367,0.13849 -0.10901,0.0664 -0.21859,0.13209 -0.32918,0.19586 -2.7e-4,-0.0296 -10e-4,-0.0595 -5.3e-4,-0.0894 0.099,-0.0802 0.19696,-0.16108 0.293,-0.24495 z m 3.51244,0.0568 c 0.0257,0.10159 0.0516,0.20303 0.078,0.30437 -0.045,0.0275 -0.0912,0.054 -0.13591,0.0817 -0.0204,0.0127 -0.0409,0.025 -0.0615,0.0377 -0.005,-0.0214 -0.009,-0.0431 -0.0145,-0.0651 0.0439,-0.12012 0.0878,-0.2401 0.13384,-0.35863 z m 1.80041,0.0372 c 0.0471,0.007 0.0948,0.0138 0.14211,0.0207 0.005,7.9e-4 0.009,0.001 0.014,0.002 -0.0315,0.0714 -0.0659,0.14176 -0.0987,0.21239 -0.0177,-0.0786 -0.0367,-0.15682 -0.0574,-0.23461 z m 2.82102,0.0191 c 0.001,0.003 0.002,0.006 0.004,0.009 0.001,-5.2e-4 0.002,-7.9e-4 0.003,-0.002 z m 0.004,0.009 c -2.6e-4,1.4e-4 -7.9e-4,2.3e-4 -0.001,5.3e-4 h 0.001 z m 0.0465,0.0475 c -2.6e-4,0.001 -7.9e-4,0.002 -10e-4,0.003 h 5.3e-4 c 0.001,-2e-5 0.002,-5.3e-4 0.003,-5.3e-4 z m -2.30787,0.002 c 0.0151,0.002 0.0304,0.004 0.0455,0.006 -0.0376,0.0974 -0.0751,0.1941 -0.11162,0.29093 -0.0161,-0.0653 -0.0322,-0.13076 -0.0486,-0.19585 0.0381,-0.0339 0.0771,-0.0669 0.11472,-0.10129 z m -7.862565,0.0104 c 0.03307,0.10372 0.06787,0.20689 0.104386,0.30954 -0.08176,0.0844 -0.164791,0.16801 -0.24443,0.25373 -0.101865,0.10954 -0.225486,0.23174 -0.328145,0.36536 -0.03836,-0.10478 -0.07935,-0.20919 -0.122472,-0.31265 0.03784,-0.0331 0.07855,-0.0639 0.100766,-0.0847 0.08017,-0.0762 0.151011,-0.16006 0.223245,-0.24339 0.08571,-0.099 0.176956,-0.19259 0.26665,-0.28784 z m 6.246645,0.0155 v 5.3e-4 c -0.096,0.21722 -0.1985,0.43062 -0.32814,0.63356 l -0.006,0.004 c -0.0312,-0.12489 -0.0656,-0.24953 -0.10076,-0.37362 0.14526,-0.0876 0.28985,-0.17648 0.43511,-0.26407 z m 3.94395,0.009 c -0.003,0.004 -0.007,0.008 -0.008,0.0124 -5e-5,2.2e-4 6e-5,7.9e-4 0,0.001 0.003,-0.004 0.005,-0.01 0.008,-0.0134 z m -2.06551,0.002 c 0.17578,0.0259 0.3511,0.0562 0.52503,0.0946 0.0185,0.0371 0.0404,0.0717 0.0584,0.10904 0.10636,0.2204 0.20285,0.44445 0.31212,0.66353 0.0508,0.10213 0.092,0.21044 0.1571,0.30437 0.0275,0.0397 0.0608,0.0809 0.0894,0.12402 -0.16987,0.26459 -0.36466,0.5139 -0.58188,0.74673 -0.0997,0.10742 -0.20575,0.20722 -0.31264,0.30644 -0.001,-0.0862 0.008,-0.18728 0.005,-0.22273 -0.018,-0.18124 -0.10308,-0.37536 -0.17002,-0.54363 -0.0347,-0.0868 -0.077,-0.17005 -0.11162,-0.25683 -0.0307,-0.0773 -0.0376,-0.15882 -0.0527,-0.23978 -0.0169,-0.0907 -0.0636,-0.18142 -0.0941,-0.2682 -0.0225,-0.0643 -0.0386,-0.1305 -0.0568,-0.19586 0.0857,-0.2032 0.15845,-0.41344 0.23254,-0.62167 z m -1.00356,0.007 c 0.022,0.085 0.0433,0.17048 0.0605,0.25683 v 5.3e-4 c -0.11482,0.09 -0.22815,0.18149 -0.34933,0.26511 -0.0717,0.0495 -0.14558,0.0953 -0.21807,0.14314 0,-0.002 -1.6e-4,-0.004 -5.3e-4,-0.005 0.12911,-0.17648 0.25509,-0.35656 0.36277,-0.54415 0.049,-0.0378 0.096,-0.0782 0.14469,-0.11679 z m 3.04323,0.005 c 1.3e-4,0.004 -5.3e-4,0.008 0,0.0119 0.002,0.003 0.004,0.004 0.006,0.006 2.6e-4,-8e-4 5.3e-4,-5.3e-4 0.001,-0.002 2.6e-4,-2.6e-4 -2.7e-4,-0.001 0,-0.002 7.9e-4,-5.2e-4 7.9e-4,-5.2e-4 0.002,-0.001 2e-4,-2.6e-4 2.1e-4,-8e-4 5.3e-4,-0.001 -2.2e-4,-10e-4 -0.003,-0.006 -0.002,-0.006 -0.002,-10e-4 -0.005,-0.004 -0.007,-0.006 z m 0.0124,0.0289 c -8e-4,0.005 -0.002,0.008 -0.003,0.0119 0.002,0.003 0.003,0.006 0.005,0.008 10e-4,-0.003 0.003,-0.006 0.004,-0.008 -7.9e-4,-0.003 -0.002,-0.005 -0.002,-0.007 -0.002,-10e-4 -0.003,-0.003 -0.004,-0.005 z m 0.008,0.0109 c -2.6e-4,5.2e-4 -7.9e-4,0.002 -0.001,0.003 5.3e-4,8e-4 1.4e-4,0.001 0.001,0.003 2.6e-4,-5.3e-4 1.9e-4,-0.002 5.3e-4,-0.003 -0.001,-0.002 2.6e-4,-0.002 -5.3e-4,-0.003 z m -5.3e-4,0.007 c -7.9e-4,0.002 -10e-4,0.003 -0.003,0.005 -2.7e-4,-5.3e-4 -8e-4,-8e-4 -0.002,-0.002 -1.9e-4,5.3e-4 -2.3e-4,0.001 -5.3e-4,0.002 5.3e-4,2.5e-4 0.001,1.8e-4 0.002,5.2e-4 v 5.3e-4 0.002 c -0.002,0.004 -0.003,0.009 -0.005,0.0124 -0.002,0.004 -5.3e-4,-0.005 -0.001,-0.008 -0.008,0.0151 -0.0151,0.0303 -0.0227,0.0455 0.0135,-0.0123 0.0248,-0.0267 0.0398,-0.0377 -5.3e-4,-0.002 -7.9e-4,-0.004 -0.002,-0.006 -0.002,2.6e-4 -0.004,-0.004 -0.007,-0.005 0.001,8e-4 0.003,-9e-5 0.005,5.3e-4 -0.001,-0.004 -0.002,-0.007 -0.004,-0.0103 z m -0.0103,0.002 c -0.002,0.009 1.2e-4,0.007 0.002,0.009 8e-4,-0.002 0.002,-0.004 0.004,-0.006 -0.002,-0.002 -0.004,-0.002 -0.005,-0.004 z m 0.002,0.009 c -1.4e-4,2.7e-4 -2.2e-4,0.001 -5.3e-4,0.002 l 10e-4,5.3e-4 c -1.6e-4,-5.3e-4 -2.2e-4,-0.002 -5.3e-4,-0.002 z m -9.584425,0.0305 v 2.6e-4 c 0.03015,0.17753 0.06393,0.35333 0.114205,0.52451 0.0011,0.003 0.0016,0.007 0.0026,0.01 -0.01244,0.014 -0.02503,0.0286 -0.03721,0.0429 -0.05874,0.0352 -0.117227,0.0697 -0.175699,0.10645 -0.04392,-0.15054 -0.0959,-0.29858 -0.149345,-0.44648 0.0807,-0.0807 0.162648,-0.15966 0.245462,-0.23771 z m 1.487765,0.0336 c 0.0122,0.0405 0.0247,0.0807 0.0398,0.12041 0.0677,0.17833 0.14549,0.35666 0.20051,0.54001 -0.13255,0.0757 -0.27088,0.14065 -0.41032,0.20309 -0.007,-0.0193 -0.0145,-0.0374 -0.0217,-0.0568 -0.0693,-0.18918 -0.14078,-0.38368 -0.1757,-0.58291 -7.9e-4,-0.004 -7.9e-4,-0.008 -0.002,-0.0124 0.12356,-0.0696 0.24594,-0.14045 0.36897,-0.21136 z m 6.82646,0.0269 c 0.16563,0.0489 0.32828,0.10541 0.49868,0.13849 0.002,5.3e-4 0.005,0.001 0.007,0.002 0.0156,0.0394 0.0324,0.0784 0.0481,0.11782 0.037,0.0942 0.0882,0.18092 0.13952,0.26717 -0.0635,0.14473 -0.13561,0.28489 -0.21446,0.42168 -0.0164,-0.0235 -0.0327,-0.0465 -0.0496,-0.0708 -0.0561,-0.081 -0.0907,-0.18293 -0.13435,-0.2713 -0.055,-0.11139 -0.11169,-0.22214 -0.16434,-0.33486 -0.0423,-0.0907 -0.0868,-0.17954 -0.13022,-0.26923 z m -7.41092,0.0424 c 5.3e-4,0.0119 0.002,0.0227 0.002,0.0346 -0.0439,0.0238 -0.0881,0.048 -0.1323,0.0713 0.0423,-0.036 0.0866,-0.071 0.13023,-0.10593 z m 6.07095,0.0233 c 0.0323,0.12223 0.0648,0.24417 0.0982,0.36587 -0.0532,0.12568 -0.11136,0.24961 -0.17776,0.37052 -0.0116,-0.10953 -0.0221,-0.21964 -0.0362,-0.32918 -0.007,-0.0569 -0.0176,-0.11237 -0.0269,-0.16846 0.0318,-0.0638 0.061,-0.12898 0.0915,-0.19327 0.0175,-0.0145 0.0337,-0.0307 0.0512,-0.0455 z m -1.22525,0.0568 c 7.9e-4,0.004 0.002,0.008 0.003,0.0119 0.002,0.0119 0.004,0.0243 0.006,0.0362 -0.0169,0.0119 -0.0338,0.0238 -0.0506,0.0357 0.014,-0.0281 0.0286,-0.0557 0.0419,-0.0837 z m 3.30677,0.047 c 0.0283,0.003 0.0562,0.009 0.0847,0.0108 -0.0119,0.0347 -0.0235,0.0692 -0.0362,0.10336 -0.006,-0.0122 -0.0126,-0.0232 -0.0176,-0.0357 -0.0108,-0.0259 -0.0207,-0.0524 -0.031,-0.0785 z m -4.01577,0.0341 v 7.7e-4 c 0.0341,0.12726 0.0671,0.25361 0.10232,0.38034 -0.0648,0.0418 -0.12922,0.0843 -0.19431,0.12557 -0.0394,-0.1233 -0.0794,-0.24587 -0.10955,-0.37207 -7.9e-4,-0.003 -0.001,-0.008 -0.002,-0.0108 0.0394,-0.0246 0.0792,-0.0488 0.11886,-0.0734 0.0281,-0.0175 0.0567,-0.0335 0.0847,-0.0507 z m -4.11344,0.0837 c 7.9e-4,0.004 10e-4,0.008 0.002,0.0119 0.0349,0.19869 0.11568,0.39504 0.185,0.58342 0.005,0.013 0.0102,0.0258 0.015,0.0388 -0.0354,0.0159 -0.0713,0.0317 -0.10646,0.0481 -0.0209,0.01 -0.0419,0.0189 -0.0625,0.0284 -0.0214,-0.0984 -0.0386,-0.19873 -0.0558,-0.29662 -0.0214,-0.12197 -0.0489,-0.24114 -0.0796,-0.35967 0.0341,-0.0183 0.0684,-0.0357 0.10232,-0.0543 z m -1.335841,0.0537 c 0.03889,0.10927 0.07644,0.2196 0.111104,0.33073 0.0056,0.0177 0.0089,0.0363 0.01394,0.0543 -0.182031,0.0815 -0.374177,0.1183 -0.581877,0.11989 0.0254,-0.0299 0.05087,-0.0593 0.07442,-0.0873 0.121435,-0.14473 0.251171,-0.28207 0.382405,-0.41754 z m 6.204271,0.0553 c 0.003,0.0204 0.007,0.0406 0.0104,0.061 -0.0521,0.0714 -0.10451,0.14251 -0.15452,0.21342 -0.0378,0.054 -0.0751,0.10778 -0.11265,0.16175 -0.0333,0.0214 -0.0664,0.0434 -0.0997,0.0651 -0.0153,-0.0524 -0.0294,-0.10496 -0.0439,-0.15761 0.0257,-0.0386 0.0506,-0.0774 0.0765,-0.11575 0.004,-0.006 0.008,-0.0133 0.0119,-0.0196 0.10451,-0.0688 0.20895,-0.13734 0.31213,-0.20825 z m 0.75758,0 c -0.13282,0.25506 -0.27646,0.50611 -0.4315,0.7519 -0.0206,-0.13679 -0.0414,-0.27353 -0.062,-0.41032 0.11007,-0.0714 0.22097,-0.14242 0.32918,-0.21704 0.0569,-0.0394 0.10904,-0.0835 0.16433,-0.12454 z m -5.91127,0.0419 c 0.0508,0.21484 0.0825,0.43169 0.13384,0.64389 -0.0897,0.0407 -0.18132,0.0792 -0.27233,0.11679 -0.001,-0.007 -0.002,-0.0148 -0.004,-0.0222 -0.0355,-0.19976 -0.08667,-0.39488 -0.136941,-0.59014 0.04868,-0.0281 0.09829,-0.0552 0.148831,-0.0796 0.0442,-0.0214 0.0866,-0.0465 0.13022,-0.0687 z m 4.01423,0.003 c 0.0355,0.12832 0.0738,0.25617 0.11317,0.38344 -0.19764,0.12408 -0.39508,0.2485 -0.59273,0.37258 0.0915,-0.15425 0.19887,-0.29999 0.29094,-0.45424 0.0524,-0.0876 0.098,-0.17868 0.14004,-0.27181 0.0161,-0.01 0.0324,-0.0199 0.0486,-0.03 z m -5.95003,0.15296 c 0.02373,0.0652 0.04504,0.13216 0.06563,0.19947 -0.04418,-0.0138 -0.08761,-0.0309 -0.130741,-0.0506 -2.65e-4,-0.007 -0.003,-0.0132 -0.0052,-0.0202 0.0013,-0.003 7.93e-4,-0.004 0.0026,-0.008 0.01085,-0.023 0.02373,-0.045 0.03617,-0.0672 0.0097,-0.0174 0.02125,-0.0353 0.03152,-0.0537 z m 7.9623,0.0217 c 0.0196,0.16879 0.0365,0.33838 0.0507,0.50798 -0.15213,0.27728 -0.29583,0.55824 -0.46199,0.82838 -0.002,-0.0119 -0.007,-0.023 -0.009,-0.0346 -0.0299,-0.15505 -0.0529,-0.3108 -0.0775,-0.46664 0.17965,-0.27013 0.34366,-0.54988 0.49816,-0.83509 z m -2.40502,0.0605 v 5.2e-4 c -0.0667,0.11008 -0.13733,0.21792 -0.20877,0.32402 -0.0968,0.1434 -0.1825,0.29336 -0.26717,0.44338 -0.31537,0.20373 -0.63035,0.41175 -0.96479,0.58188 -0.004,0.002 -0.009,0.004 -0.0134,0.006 -0.11271,-0.14129 -0.25754,-0.25982 -0.35967,-0.40772 -0.005,-0.008 -0.0104,-0.016 -0.016,-0.0238 0.0646,-0.0352 0.12979,-0.0699 0.19223,-0.10697 0.17939,-0.10636 0.38238,-0.18374 0.57154,-0.27079 0.20823,-0.0958 0.41586,-0.19238 0.62012,-0.29662 0.15187,-0.0773 0.29886,-0.16361 0.44597,-0.2496 z m -4.078814,0.0543 c 0.04492,0.1816 0.08344,0.36407 0.118337,0.54725 -0.03466,0.0127 -0.06816,0.0287 -0.103351,0.0403 -0.05265,0.0175 -0.105466,0.0335 -0.158647,0.0501 -0.01508,-0.13679 -0.03045,-0.27209 -0.05426,-0.40359 -5.29e-4,-0.003 -0.0016,-0.005 -0.0021,-0.008 0.05054,-0.0566 0.100915,-0.11258 0.14986,-0.17053 0.01633,-0.0192 0.03354,-0.0363 0.05013,-0.0553 z m -1.553912,0.007 v 0.001 h -5.29e-4 c 0,-2.5e-4 5.29e-4,-7.9e-4 5.29e-4,-0.001 z m 8.539016,0.006 c 0.0423,0.11774 0.0843,0.23557 0.10283,0.36019 0.0188,0.12567 0.0851,0.24511 0.13643,0.35967 0.0624,0.13944 0.0846,0.29392 0.14469,0.4315 0.0542,0.12409 0.004,0.32066 0.0439,0.46353 -0.14817,0.12834 -0.30097,0.25148 -0.45734,0.37001 -0.006,-0.10583 -0.0162,-0.21122 -0.0305,-0.31626 -0.0304,-0.2241 -0.10471,-0.43525 -0.12402,-0.66146 -0.0167,-0.19527 -0.0337,-0.39126 -0.0522,-0.58705 0.073,-0.12885 0.14871,-0.25662 0.21962,-0.38653 0.006,-0.0109 0.0107,-0.0225 0.0165,-0.0336 z m -5.38779,0.0899 c 0.0283,0.12409 0.0562,0.2454 0.12558,0.35864 0.0691,0.11245 0.14939,0.21783 0.22427,0.32711 -0.0408,0.0209 -0.0804,0.043 -0.12247,0.062 -0.11482,0.0519 -0.23286,0.0969 -0.35192,0.13849 -0.09,-0.22939 -0.17831,-0.45916 -0.2651,-0.68988 0.1307,-0.0635 0.26026,-0.12996 0.38964,-0.19637 z m 4.08968,0.0305 c 0.027,0.18203 0.0533,0.36418 0.0811,0.54622 -0.0823,0.12171 -0.16564,0.24272 -0.25322,0.36019 -0.0526,-0.18864 -0.11078,-0.37596 -0.16846,-0.56328 0.0519,-0.0741 0.1042,-0.14811 0.15606,-0.22272 0.0616,-0.0397 0.12284,-0.0807 0.18449,-0.12041 z m -0.81546,0.0207 c -0.0127,0.0193 -0.0254,0.0391 -0.0382,0.0584 -0.003,-0.01 -0.006,-0.0189 -0.008,-0.0284 0.0153,-0.01 0.0309,-0.0202 0.0465,-0.03 z m -5.347475,0.0708 c -0.01561,0.018 -0.0309,0.0365 -0.04651,0.0543 -0.11589,0.12965 -0.252394,0.26637 -0.342617,0.42168 -0.01455,-0.003 -0.0286,-0.007 -0.04289,-0.0114 -0.01614,-0.0222 -0.03451,-0.0436 -0.05012,-0.0667 -0.06588,-0.0974 -0.117512,-0.19986 -0.163814,-0.30437 0.126206,0.005 0.253891,-2.2e-4 0.379304,-0.0191 0.09393,-0.014 0.181985,-0.0408 0.266652,-0.0744 z m 5.542295,0.007 c 0.005,0.0169 0.01,0.0338 0.0145,0.0506 -0.0278,0.0185 -0.0564,0.036 -0.0842,0.0548 0.0232,-0.0351 0.0466,-0.0702 0.0698,-0.10542 z m -0.42064,0.0667 c 0.0124,0.0431 0.0248,0.0863 0.0372,0.12971 -0.0471,0.0675 -0.0947,0.13384 -0.14366,0.19999 -0.0169,0.009 -0.0324,0.02 -0.0496,0.0289 -0.1889,0.0995 -0.34198,0.22253 -0.50126,0.36328 -0.21484,0.19024 -0.43324,0.36579 -0.66714,0.52348 0.15214,-0.18468 0.28067,-0.39184 0.39894,-0.59531 0.018,-0.031 0.0345,-0.0628 0.0522,-0.094 0.086,-0.0563 0.17265,-0.11239 0.2589,-0.16743 0.20452,-0.13044 0.40939,-0.2595 0.61444,-0.38861 z m -3.62562,0.0894 c 0.0526,0.13664 0.10472,0.27369 0.15916,0.4098 0.0339,0.0847 0.0654,0.17033 0.0977,0.25579 -0.0249,0.008 -0.049,0.0164 -0.0739,0.0238 -0.0116,0.003 -0.0235,0.006 -0.0351,0.0103 -0.1053,-0.14789 -0.20203,-0.30597 -0.28009,-0.46922 -0.022,-0.0458 -0.0397,-0.0934 -0.0558,-0.14159 0.063,-0.0291 0.12539,-0.0592 0.1881,-0.0889 z m -1.3963,0.0388 c 0.01402,0.0881 0.02841,0.17647 0.03979,0.2651 -0.09816,0.0228 -0.19738,0.0359 -0.297657,0.0367 0.05054,-0.0664 0.107834,-0.12958 0.159163,-0.19017 0.03228,-0.0378 0.06563,-0.0743 0.0987,-0.11162 z m -0.849043,0.0739 c 0.01058,0.0188 0.02066,0.0383 0.03152,0.0568 -0.01455,-0.01 -0.02883,-0.0195 -0.04444,-0.0295 0.0061,-0.008 0.01029,-0.0173 0.01291,-0.0274 z m 11.230833,0.016 c 2.6e-4,8e-4 8e-4,0.002 10e-4,0.003 0.002,0.003 0.002,0.003 0.004,0.005 -0.002,-0.003 -0.003,-0.005 -0.005,-0.008 z m 0.0103,0.0176 c 7.9e-4,0.003 7.9e-4,0.006 0.003,0.009 0.002,0.002 0.004,0.005 0.006,0.007 -0.003,-0.005 -0.006,-0.0105 -0.009,-0.0155 z m -9.36583,0.0269 c 0.0278,0.0841 0.06,0.16734 0.10128,0.24856 0.0587,0.11483 0.12822,0.22537 0.20257,0.33279 -0.16192,0.0373 -0.32552,0.0631 -0.49247,0.0703 -0.0458,-0.17252 -0.0789,-0.34932 -0.10749,-0.52659 0.10001,-0.0392 0.19847,-0.0809 0.29611,-0.12505 z m 4.37751,0.005 c -0.0243,0.0333 -0.0488,0.0664 -0.0734,0.0992 -0.004,-0.0143 -0.007,-0.0286 -0.0114,-0.0429 0.0281,-0.0185 0.0564,-0.0373 0.0847,-0.0563 z m 0.16949,0.11988 c 0.0225,0.0757 0.0426,0.15171 0.0651,0.22738 0.0328,0.10928 0.0629,0.21963 0.0925,0.3297 -0.0706,0.0892 -0.1409,0.17886 -0.21446,0.26458 -0.0344,-0.19685 -0.0735,-0.39233 -0.12144,-0.58653 0.0609,-0.0775 0.1206,-0.15602 0.17828,-0.23513 z m -0.4305,0.0457 c 0.0114,0.0431 0.0233,0.0855 0.0341,0.12868 -0.0291,0.0362 -0.0574,0.0733 -0.0873,0.10903 -0.27596,0.32755 -0.57248,0.63756 -0.87437,0.94103 -0.14896,0.14976 -0.28998,0.30737 -0.4408,0.45527 -0.007,0.007 -0.0159,0.0136 -0.0233,0.0202 -0.028,-0.0315 -0.0572,-0.0623 -0.0842,-0.0946 -0.0167,-0.0198 -0.0301,-0.0416 -0.046,-0.062 0.18256,-0.14023 0.36041,-0.28593 0.52762,-0.44441 0.29872,-0.28284 0.58188,-0.57557 0.83561,-0.89969 0.0257,-0.0328 0.0474,-0.0685 0.0723,-0.1018 0.0291,-0.0169 0.0577,-0.034 0.0863,-0.0517 z m -4.609542,0.0243 c 0.01587,0.0868 0.03168,0.17366 0.04754,0.26096 0.01191,0.0664 0.02779,0.13054 0.04393,0.19483 -0.104246,-0.003 -0.20841,-0.0111 -0.312127,-0.0217 -0.02434,-0.11218 -0.04204,-0.22675 -0.05633,-0.3421 0.06429,-0.0201 0.128257,-0.0406 0.190169,-0.0605 0.02937,-0.01 0.05771,-0.0215 0.08682,-0.0315 z m 6.410462,0.0104 c 0.001,0.0151 0.003,0.0304 0.004,0.0455 0.0222,0.2331 0.0474,0.45954 0.10852,0.68575 0.0564,0.20875 0.076,0.43419 0.076,0.65009 -0.12092,0.0876 -0.24233,0.17447 -0.36484,0.25993 -0.007,-0.0209 -0.0143,-0.0421 -0.0207,-0.063 -0.018,-0.0598 -0.0315,-0.12052 -0.045,-0.18138 -0.0341,-0.15187 -0.0606,-0.30608 -0.10852,-0.45424 -0.0238,-0.0738 -0.049,-0.1476 -0.0729,-0.22169 0.0741,-0.11403 0.15003,-0.22696 0.21962,-0.34365 0.073,-0.12276 0.13773,-0.25023 0.20361,-0.37723 z m -6.876066,0.13435 c 0.01164,0.0894 0.02447,0.17854 0.03876,0.26717 -0.04895,-0.006 -0.09781,-0.0112 -0.14676,-0.0165 -0.03387,-0.004 -0.06794,-0.005 -0.101803,-0.007 -0.06641,-0.068 -0.130829,-0.13811 -0.19327,-0.20981 0.0725,0.005 0.145338,0.006 0.21704,-10e-4 0.06191,-0.006 0.124124,-0.0183 0.186036,-0.0331 z m 2.378666,0.062 c 0.078,0.10927 0.16261,0.20744 0.25786,0.3085 0.0355,0.0373 0.0654,0.0786 0.0977,0.11834 -0.22939,0.095 -0.46169,0.15883 -0.70589,0.18449 -0.0508,-0.10028 -0.0982,-0.20245 -0.13953,-0.30696 -0.0106,-0.0267 -0.0204,-0.0539 -0.031,-0.0806 0.17833,-0.0646 0.35209,-0.13989 0.5209,-0.22376 z m 3.74241,0.003 c 0.0225,0.14076 0.047,0.28073 0.0801,0.41858 0.006,0.027 0.0151,0.0529 0.0227,0.0796 -0.064,0.0987 -0.12713,0.19848 -0.19327,0.29611 -0.0434,-0.15981 -0.0899,-0.31926 -0.13642,-0.47801 0.004,-0.006 0.009,-0.0107 0.0134,-0.0165 0.0741,-0.0976 0.14252,-0.19945 0.21342,-0.29973 z m -2.44533,0.14883 c -0.13123,0.2077 -0.27886,0.40337 -0.47491,0.56741 -0.002,0.002 -0.005,0.004 -0.008,0.006 -0.045,-0.0733 -0.0919,-0.14484 -0.13952,-0.21601 0.0598,-0.0304 0.11981,-0.0607 0.17776,-0.0925 0.15081,-0.0828 0.29811,-0.17276 0.44442,-0.2651 z m 1.49241,5.3e-4 c 0.0267,0.12383 0.0511,0.24772 0.0692,0.37155 0.0111,0.0751 0.0247,0.15069 0.0382,0.22634 -0.35294,0.41144 -0.69657,0.83121 -1.03973,1.25058 -0.0915,-0.0733 -0.17721,-0.15372 -0.25631,-0.24288 -0.0529,-0.0598 -0.1052,-0.12031 -0.15917,-0.17984 0.023,-0.0209 0.0465,-0.0408 0.0687,-0.0625 0.15134,-0.14817 0.29235,-0.30705 0.44184,-0.45733 0.28998,-0.29157 0.57099,-0.59236 0.83715,-0.90589 z m -3.50418,0.13797 c 0.0185,0.0484 0.0383,0.0963 0.0579,0.14418 -0.0349,-0.0434 -0.0697,-0.0863 -0.10542,-0.12919 0.0159,-0.005 0.0317,-0.0102 0.0475,-0.015 z m -0.26509,0.0708 c 0.0175,0.0222 0.0334,0.0465 0.0512,0.0682 0.0534,0.0656 0.101,0.13051 0.14624,0.19586 -0.23019,-0.002 -0.46021,-0.003 -0.6904,-0.003 -0.0283,-0.0566 -0.0522,-0.11565 -0.0739,-0.17518 0.1905,-0.0127 0.37984,-0.0413 0.5669,-0.0858 z m 2.85977,5.3e-4 c -0.22252,0.22992 -0.45877,0.44699 -0.7059,0.64596 -0.0399,0.0323 -0.0822,0.062 -0.12299,0.0935 -0.0262,-0.0386 -0.0507,-0.0784 -0.0755,-0.11782 0.32041,-0.17436 0.62097,-0.38487 0.90434,-0.62167 z m -4.232816,0.0558 0.05994,0.005 c 0.0074,0.0259 0.01685,0.0511 0.02532,0.0765 -0.005,-0.005 -0.01098,-0.009 -0.01601,-0.0139 -0.02302,-0.022 -0.04623,-0.045 -0.06924,-0.0672 z m 0.281119,0.0233 c 0.03704,0.003 0.07355,0.006 0.110586,0.009 0.06668,0.005 0.133567,0.004 0.200511,0.004 0.019,0.0566 0.0405,0.11292 0.0641,0.16795 -0.0291,0 -0.0585,-1.6e-4 -0.0873,-5.3e-4 -0.07488,-5.3e-4 -0.149145,-0.005 -0.22376,-0.0103 -0.01429,-0.0323 -0.03019,-0.0638 -0.04289,-0.0966 -0.0093,-0.0238 -0.01299,-0.049 -0.02119,-0.0734 z m 5.422407,0.0816 c 0.0135,0.0497 0.0265,0.0996 0.0408,0.14934 0.0336,0.11721 0.0687,0.23468 0.10129,0.35295 -0.077,0.10953 -0.15319,0.22021 -0.23203,0.32763 -0.0156,0.0214 -0.034,0.0432 -0.0506,0.0646 -0.004,-0.0307 -0.006,-0.0613 -0.01,-0.092 -0.005,-0.0463 -0.0113,-0.0924 -0.0129,-0.13901 -7.9e-4,-0.0222 -0.009,-0.0395 -0.0186,-0.0543 -0.007,-0.0394 -0.012,-0.0794 -0.0186,-0.11834 -0.0114,-0.0669 -0.023,-0.13356 -0.0341,-0.2005 0.0802,-0.0955 0.15682,-0.19332 0.23461,-0.29042 z m -2.86391,0.076 c 0.0376,0.0542 0.0751,0.1085 0.11059,0.16433 0.0172,0.027 0.0337,0.0545 0.0506,0.0816 -0.0682,0.0442 -0.13771,0.0866 -0.20412,0.13074 -0.041,0.0273 -0.0822,0.0529 -0.12351,0.0796 -0.11218,0.0407 -0.22596,0.0763 -0.34106,0.108 -0.0759,-0.11351 -0.14799,-0.229 -0.21652,-0.34727 0.25002,-0.0294 0.4922,-0.11252 0.72398,-0.21704 z m 3.4401,0.15503 c 0.0278,0.081 0.0548,0.16211 0.0739,0.24598 0.0286,0.12594 0.052,0.25313 0.0832,0.37827 0.0143,0.0571 0.0321,0.12906 0.0625,0.19017 -0.0923,0.0635 -0.18814,0.12146 -0.28577,0.1757 -0.0122,-0.0468 -0.0204,-0.0951 -0.0305,-0.13797 -0.0294,-0.12727 -0.0532,-0.25564 -0.077,-0.38396 -0.0101,-0.0542 -0.0237,-0.10802 -0.0362,-0.16226 0.0701,-0.10187 0.14048,-0.20353 0.2098,-0.30593 z m -5.834783,0.0698 c 0.103185,0.004 0.206853,0.005 0.310573,0.005 0.032,0.0585 0.0645,0.11725 0.10232,0.17415 0.0722,0.10768 0.1578,0.20433 0.23823,0.3054 -0.22596,-0.14922 -0.44475,-0.30931 -0.651123,-0.48472 z m 0.560173,0.009 c 0.23098,0.005 0.46405,0.0123 0.69556,0.008 0.0452,0.0841 0.0873,0.17111 0.12351,0.26768 0.0196,0.0524 0.0366,0.1047 0.0522,0.15761 -0.17144,0.0281 -0.34501,0.0451 -0.51831,0.0517 -0.0357,-0.054 -0.0714,-0.10758 -0.1111,-0.15865 -0.0849,-0.109 -0.16618,-0.2152 -0.24185,-0.32659 z m 4.29276,0.18707 c 0.0172,0.0956 0.0325,0.19145 0.046,0.28732 0.0111,0.11615 0.0249,0.23189 0.0315,0.3483 -0.0868,0.11298 -0.16301,0.23209 -0.20773,0.36173 -2.7e-4,5.3e-4 -8e-4,0.001 -0.001,0.002 -0.003,0.008 -0.008,0.0161 -0.0104,0.0248 -0.008,0.0262 -0.006,0.0479 0.002,0.0667 -0.25135,0.0347 -0.50615,0.0379 -0.76068,0.0403 -0.005,-0.009 -0.0125,-0.0172 -0.0212,-0.0248 0.17833,-0.21722 0.35701,-0.43417 0.5364,-0.6506 0.12672,-0.15294 0.25613,-0.30392 0.38499,-0.45579 z m -3.27422,0.0367 c 0.0344,0.0537 0.069,0.10752 0.10335,0.16123 -0.0159,0.004 -0.0322,0.006 -0.0481,0.01 -0.008,-0.0288 -0.0158,-0.0585 -0.0248,-0.0879 -0.008,-0.0275 -0.021,-0.0554 -0.0305,-0.0832 z m 1.12448,0.0227 c 0.0308,0.0488 0.0624,0.0972 0.0946,0.14521 -0.14366,0.1053 -0.28958,0.2082 -0.43563,0.30954 -0.045,0.0312 -0.0931,0.0689 -0.14366,0.10645 -0.0574,-0.0789 -0.11142,-0.15921 -0.16433,-0.23409 -8e-4,-0.001 -0.002,-0.002 -0.002,-0.003 0.0939,-0.0497 0.18499,-0.10535 0.2744,-0.16329 0.12806,-0.0484 0.25448,-0.10144 0.37672,-0.16123 z m -2.56832,0.0672 c 0.0646,0.05 0.12841,0.10121 0.19482,0.14883 -0.0468,-0.005 -0.0932,-0.0104 -0.14004,-0.0186 -0.0191,-0.0431 -0.0381,-0.086 -0.0548,-0.13022 z m 5.32939,0.14625 c 0.0233,0.12339 0.0464,0.24636 0.0739,0.36897 0.0127,0.0569 0.0265,0.11874 0.0444,0.1788 -0.18865,0.09 -0.38488,0.16362 -0.58808,0.21652 -0.0167,0.004 -0.0337,0.005 -0.0506,0.009 0.0228,-0.0299 0.0455,-0.0598 0.0682,-0.0899 0.0243,-0.032 0.0232,-0.0624 0.0103,-0.0884 0.0283,-0.0405 0.0577,-0.08 0.0868,-0.11834 0.01,-0.008 0.0185,-0.0188 0.0243,-0.032 l 0.003,-0.003 c 0.10861,-0.14797 0.22165,-0.29203 0.32763,-0.44183 z m -2.5492,0.0977 c 0.0431,0.0569 0.0903,0.11089 0.1385,0.16381 -0.0786,0.0622 -0.1531,0.12875 -0.1912,0.21394 -0.008,0.0185 -0.0104,0.0365 -0.0104,0.0548 l -5.3e-4,-5.3e-4 c -0.002,-0.0198 -0.0199,0.0445 -0.03,0.0661 -0.0251,0.054 -0.0524,0.10725 -0.0775,0.16123 -0.0103,0.022 -0.021,0.0459 -0.03,0.0703 h -10e-4 c -0.0749,-0.0627 -0.15167,-0.1239 -0.22892,-0.18448 -0.0474,-0.0373 -0.0913,-0.0806 -0.13281,-0.12713 0.10238,-0.0741 0.19826,-0.15286 0.28319,-0.21239 0.095,-0.0667 0.1872,-0.13687 0.2806,-0.20567 z m -1.05161,0.10025 c 0.0603,0.0889 0.12379,0.17422 0.18913,0.25942 -0.0495,0.0275 -0.10007,0.0491 -0.15192,0.061 -0.0241,-0.0434 -0.0484,-0.0859 -0.0765,-0.1235 -0.0347,-0.0463 -0.0612,-0.0955 -0.0842,-0.14573 0.0413,-0.0151 0.0825,-0.0334 0.12351,-0.0512 z m -0.32091,0.11317 c 0.0167,0.0397 0.0336,0.0795 0.0558,0.11782 0.0254,0.0439 0.0551,0.0838 0.0842,0.12455 -0.10742,-0.0413 -0.21382,-0.0849 -0.31832,-0.13281 -0.0352,-0.0161 -0.0677,-0.0369 -0.10232,-0.0538 0.095,-0.0127 0.18852,-0.0315 0.2806,-0.0558 z m 1.65623,0.11214 c 0.13679,0.1516 0.26535,0.30856 0.42013,0.43873 -0.22993,0.004 -0.45947,0.002 -0.68833,-0.0145 10e-4,-0.002 0.002,-0.006 0.003,-0.008 0.0251,-0.054 0.0524,-0.10725 0.0775,-0.16122 0.0169,-0.036 0.036,-0.0773 0.0434,-0.11783 0.0353,-0.0604 0.0911,-0.0915 0.14417,-0.13694 z m -1.01493,0.20102 c 0.0386,0.0439 0.0791,0.0859 0.12144,0.12506 -0.0807,-0.0198 -0.16117,-0.0413 -0.24081,-0.0651 0.0402,-0.0169 0.0802,-0.0373 0.11937,-0.0599 z"
       style="fill:#000000;stroke-width:0.264583"
       id="path10" />
  </g>
</svg>
